<svg xmlns="http://www.w3.org/2000/svg" width="42.779" height="45.766" viewBox="0 0 42.779 45.766">
  <g id="catering_icon_outlined" data-name="catering icon outlined" transform="translate(-1696.723 -238.027)">
    <g id="Group_4772" data-name="Group 4772" transform="translate(1698.526 264.272)">
      <path id="Path_3444" data-name="Path 3444" d="M1706.315,271.926a2.018,2.018,0,0,1-1.436-.595l-6.406-6.4a2.036,2.036,0,0,1,0-2.876l2.284-2.284a2.036,2.036,0,0,1,2.874,0l6.406,6.406a2.035,2.035,0,0,1,0,2.876l-2.284,2.282A2.019,2.019,0,0,1,1706.315,271.926Zm-4.122-10.856a.135.135,0,0,0-.1.041l-2.282,2.284a.131.131,0,0,0,0,.19l6.4,6.4h0a.134.134,0,0,0,.191,0l2.284-2.282a.134.134,0,0,0,0-.19l-6.4-6.406A.135.135,0,0,0,1702.193,261.069Z" transform="translate(-1697.878 -252.405)" fill="#fff"/>
      <g id="Group_4771" data-name="Group 4771" transform="translate(6.29)">
        <path id="Path_3445" data-name="Path 3445" d="M1709.129,268.083h0a.95.95,0,0,1-.671-.278l-6.274-6.276a.954.954,0,0,1,0-1.343l2.409-2.407c1.625-1.675,5.911-4.259,10.573-2.148h8.585a2.444,2.444,0,0,1,2.244,3.416l4.129-3.115a2.77,2.77,0,0,1,3.858.052h0a2.775,2.775,0,0,1,0,3.911l-7.289,5.812a3.344,3.344,0,0,1-2.37.943h-13.368l-1.154,1.155A.948.948,0,0,1,1709.129,268.083Zm-4.933-7.225,4.933,4.935.762-.762a.947.947,0,0,1,.671-.278h13.76a1.579,1.579,0,0,0,1.108-.459l7.287-5.812a.869.869,0,0,0-.079-1.157h0a.946.946,0,0,0-1.389-.225,1.1,1.1,0,0,1-.1.086l-5.747,4.25a3.492,3.492,0,0,1-2.4.965h-6.246a1.222,1.222,0,0,1-1.111-1.378h0a1.244,1.244,0,0,1,1.075-1.14h5.308c2.223,0,2.268-1.5,2.268-1.806a.549.549,0,0,0-.548-.548h-8.8a.936.936,0,0,1-.411-.094c-4.677-2.247-8.443,1.516-8.6,1.677Z" transform="translate(-1701.907 -254.838)" fill="#fff"/>
      </g>
    </g>
    <path id="Path_3446" data-name="Path 3446" d="M1738.536,254.747h-40.848a.966.966,0,0,1,0-1.931h40.848a.966.966,0,1,1,0,1.931Z" transform="translate(0 8.299)" fill="#fff"/>
    <g id="Group_4773" data-name="Group 4773" transform="translate(1699.197 242.369)">
      <path id="Path_3448" data-name="Path 3448" d="M1735.189,258.746h-35.934a.948.948,0,0,1-.941-1.055,19.03,19.03,0,0,1,37.816,0,.948.948,0,0,1-.941,1.055Zm-34.838-1.9h33.743a17.135,17.135,0,0,0-33.743,0Z" transform="translate(-1698.308 -240.808)" fill="#fff"/>
    </g>
    <path id="Path_3449" data-name="Path 3449" d="M1711.427,243.6a2.788,2.788,0,1,1,2.788-2.788A2.792,2.792,0,0,1,1711.427,243.6Zm0-3.678a.891.891,0,1,0,.892.89A.892.892,0,0,0,1711.427,239.924Z" transform="translate(6.686)" fill="#fff"/>
  </g>
</svg>
