<svg xmlns="http://www.w3.org/2000/svg" width="102.902" height="76.565" viewBox="0 0 102.902 76.565">
  <g id="Group_416" data-name="Group 416" transform="translate(-4023.881 -2283.571)">
    <path id="Path_950" data-name="Path 950" d="M4065.152,2295.948a2.459,2.459,0,0,1-3.448.2,2.4,2.4,0,0,1-.2-3.413,27.6,27.6,0,0,1,41.3.251,2.4,2.4,0,0,1-.248,3.4,2.455,2.455,0,0,1-3.439-.246,22.68,22.68,0,0,0-33.96-.195Z" transform="translate(-7.357)" fill-rule="evenodd"/>
    <path id="Path_951" data-name="Path 951" d="M4051.476,2343.789a2.421,2.421,0,1,1,0,4.841,27.57,27.57,0,1,1,0-55.14,2.421,2.421,0,1,1,0,4.842,22.728,22.728,0,0,0,0,45.457Z" transform="translate(0 -1.972)" fill-rule="evenodd"/>
    <path id="Path_952" data-name="Path 952" d="M4120.908,2358.1a2.445,2.445,0,0,1,4.891,0v13.949a2.445,2.445,0,0,1-4.891,0Z" transform="translate(-19.291 -14.337)" fill-rule="evenodd"/>
    <path id="Path_953" data-name="Path 953" d="M4049.183,2358.1a2.445,2.445,0,0,1,4.891,0v13.95a2.445,2.445,0,0,1-4.891,0Z" transform="translate(-5.03 -14.337)" fill-rule="evenodd"/>
    <path id="Path_954" data-name="Path 954" d="M4062.642,2293.94a2.412,2.412,0,1,1-.86,4.746c-.671-.12-1.345-.213-2.018-.272q-.9-.081-2.048-.082a2.421,2.421,0,1,1,0-4.842c.76,0,1.584.041,2.468.119Q4061.442,2293.722,4062.642,2293.94Z" transform="translate(-6.241 -1.972)" fill-rule="evenodd"/>
    <path id="Path_955" data-name="Path 955" d="M4109.777,2372.243a2.409,2.409,0,0,1,1.662,2.988,2.439,2.439,0,0,1-3.018,1.645,93.158,93.158,0,0,0-13.487-2.794,112.628,112.628,0,0,0-29.138,0,93.141,93.141,0,0,0-13.486,2.794,2.44,2.44,0,0,1-3.019-1.645,2.41,2.41,0,0,1,1.662-2.988,98,98,0,0,1,14.193-2.945,116.028,116.028,0,0,1,30.438,0A98.026,98.026,0,0,1,4109.777,2372.243Z" transform="translate(-5.033 -16.845)" fill-rule="evenodd"/>
    <path id="Path_956" data-name="Path 956" d="M4088.327,2321.061a2.445,2.445,0,0,1-4.891,0,27.6,27.6,0,0,1,27.594-27.57,2.421,2.421,0,1,1,0,4.842,22.7,22.7,0,0,0-22.7,22.729Z" transform="translate(-11.841 -1.972)" fill-rule="evenodd"/>
    <path id="Path_957" data-name="Path 957" d="M4122.612,2348.112a2.419,2.419,0,1,1-.936-4.747,22.732,22.732,0,0,0-4.4-45.032,2.421,2.421,0,1,1,0-4.842,27.571,27.571,0,0,1,5.34,54.621Z" transform="translate(-18.081 -1.972)" fill-rule="evenodd"/>
  </g>
</svg>
