<svg width="129" height="31" viewBox="0 0 129 31" fill="none" xmlns="http://www.w3.org/2000/svg">
<path d="M14.5431 29.3344C15.7861 28.8565 16.9142 28.1587 17.8751 27.2933C18.8708 26.3955 18.9443 24.863 18.0371 23.8768C17.1311 22.8852 15.5896 22.8154 14.5954 23.7144C14.0669 24.1923 13.454 24.5733 12.7904 24.8284C12.1587 25.0698 11.4563 25.2042 10.7082 25.2042C9.09704 25.2042 7.64105 24.5494 6.58936 23.4961C5.53505 22.4372 4.8819 20.9679 4.8819 19.3375C4.8819 17.7071 5.53505 16.235 6.58936 15.1803C7.64105 14.1241 9.09704 13.4707 10.7082 13.4707C11.4563 13.4707 12.1587 13.6048 12.7904 13.8491C13.4543 14.1041 14.0669 14.4839 14.5954 14.9615C15.5898 15.8618 17.1311 15.7868 18.0371 14.8019C18.9443 13.8115 18.8708 12.2816 17.8751 11.3826C16.9142 10.5158 15.7864 9.81806 14.5431 9.3402C13.3402 8.87861 12.0462 8.62354 10.7079 8.62354C7.752 8.62354 5.07423 9.82593 3.13676 11.7718C1.19902 13.715 0 16.3893 0 19.3375C0 22.2858 1.19902 24.9627 3.13676 26.903C5.07423 28.8489 7.752 30.0513 10.7079 30.0513C12.0459 30.0513 13.3402 29.7975 14.5431 29.3346V29.3344Z" fill="black"/>
<path d="M114.658 19.3369C114.658 16.3902 113.459 13.713 111.524 11.7711C109.584 9.82528 106.904 8.62288 103.952 8.62288C102.248 8.62288 100.633 9.02806 99.1933 9.74551V3.37085C99.1933 2.03173 98.1013 0.94873 96.7498 0.94873C95.3982 0.94873 94.3091 2.03147 94.3091 3.37085V27.4905C94.3091 28.8296 95.4037 29.9165 96.7498 29.9165C97.6392 29.9165 98.4088 29.441 98.8361 28.7375C100.364 29.5709 102.105 30.0509 103.952 30.0509C106.904 30.0509 109.585 28.8485 111.524 26.9027C113.459 24.9623 114.658 22.2865 114.658 19.3371V19.3369ZM108.071 23.4967C107.018 24.5514 105.562 25.2051 103.952 25.2051C102.873 25.2051 101.874 24.9193 101.021 24.4199C100.299 23.9972 99.6788 23.4099 99.1936 22.7147V15.9609C99.6788 15.2652 100.299 14.6779 101.021 14.2549C101.874 13.7545 102.873 13.4713 103.952 13.4713C105.562 13.4713 107.02 14.1234 108.071 15.1797C109.125 16.2343 109.775 17.7078 109.775 19.3369C109.775 20.966 109.122 22.4395 108.071 23.4967Z" fill="black"/>
<path d="M26.7615 19.3369C26.7615 17.7052 27.4826 16.2291 28.6469 15.1636C29.8166 14.0953 31.4395 13.4353 33.2367 13.4353C34.5841 13.4353 35.6774 12.4261 35.6774 11.1835C35.6774 9.94099 34.5841 8.93042 33.2367 8.93042C30.582 8.93042 28.1429 9.77514 26.2041 11.1809C26.1224 10.9849 26.0384 10.7894 25.9385 10.5957L25.7925 10.3031C25.1757 9.11674 23.705 8.6499 22.5099 9.26185C21.3164 9.87381 20.8454 11.3323 21.4622 12.5174L21.6134 12.8019C21.699 12.9682 21.7647 13.1254 21.8063 13.2742L21.8209 13.3493C21.8612 13.4994 21.8756 13.6928 21.8756 13.929V27.4905C21.8756 28.8296 22.9702 29.9165 24.3179 29.9165C25.6655 29.9165 26.7615 28.8296 26.7615 27.4905V19.3369Z" fill="black"/>
<path d="M56.8292 11.4116C56.8292 10.0777 55.7401 8.99626 54.3963 8.99626C53.0526 8.99626 51.9664 10.078 51.9664 11.4116V20.206C51.9648 20.2417 51.9556 20.2753 51.9556 20.3112C51.9556 21.6503 51.4391 22.8514 50.5894 23.7061C49.7599 24.5487 48.6038 25.0667 47.303 25.0667C46.0022 25.0667 44.85 24.5461 44.0097 23.7048C43.1666 22.8606 42.6461 21.6852 42.6461 20.3768C42.6461 20.3655 42.643 20.355 42.6427 20.344C42.6427 20.3327 42.6461 20.3225 42.6461 20.3112V11.4116C42.6461 10.0751 41.5554 8.98682 40.2067 8.98682C38.858 8.98682 37.7658 10.0751 37.7658 11.4116V20.3112C37.7658 20.318 37.7679 20.3243 37.7679 20.3311C37.7676 20.3466 37.7632 20.3611 37.7632 20.3768C37.7632 22.9976 38.8321 25.3835 40.5558 27.112C42.2819 28.8432 44.6679 29.9167 47.3027 29.9167C49.9376 29.9167 52.3408 28.838 54.0645 27.0973C55.784 25.3544 56.8383 22.9535 56.8383 20.3115C56.8383 20.2797 56.8302 20.2501 56.8289 20.2186V11.4116H56.8292Z" fill="black"/>
<path d="M82.4132 8.62307C79.9605 8.62307 77.7378 9.62157 76.1266 11.2344C76.0701 11.2911 76.0204 11.354 75.9654 11.4123C75.9105 11.354 75.8607 11.2911 75.8042 11.2344C74.1931 9.61868 71.9703 8.62307 69.5176 8.62307C67.6458 8.62307 65.9104 9.20747 64.4761 10.1999C63.829 9.09516 62.4201 8.66925 61.2614 9.26205C60.0652 9.87401 59.5981 11.3338 60.2149 12.5189C60.3717 12.8262 60.492 13.0813 60.5561 13.2986C60.6056 13.4568 60.6297 13.6528 60.6297 13.9292V17.4561C60.6297 17.4742 60.6271 17.4915 60.6271 17.5096C60.6271 17.5188 60.6297 17.5272 60.6297 17.5364V27.492C60.6297 28.8298 61.7203 29.9167 63.069 29.9167C64.4177 29.9167 65.51 28.8298 65.51 27.492V17.5093C65.51 16.3849 65.9596 15.3704 66.6849 14.6429C67.4077 13.9197 68.4099 13.4702 69.5179 13.4702C70.6258 13.4702 71.6281 13.9197 72.3493 14.6429C73.0644 15.3614 73.5127 16.3607 73.5234 17.4713C73.5234 17.4841 73.5216 17.4965 73.5216 17.5091C73.5216 17.5217 73.5252 17.5348 73.5255 17.5482V27.4904C73.5255 28.8295 74.6162 29.9164 75.9649 29.9164C77.3136 29.9164 78.4084 28.8295 78.4084 27.4904V17.5119C78.4084 17.5119 78.4084 17.5106 78.4084 17.5101C78.4084 17.5098 78.4084 17.5096 78.4084 17.5091C78.4084 16.3846 78.8528 15.3701 79.5805 14.6427C80.3033 13.9194 81.3055 13.4699 82.4135 13.4699C83.5214 13.4699 84.5239 13.9194 85.2464 14.6427C85.9697 15.368 86.4172 16.3791 86.4195 17.5025C86.4195 17.5057 86.4185 17.5085 86.4185 17.5117V27.4901C86.4185 28.8293 87.5118 29.9162 88.8605 29.9162C90.2092 29.9162 91.3014 28.8293 91.3014 27.4901V17.5117C91.3014 15.0694 90.307 12.8472 88.6974 11.2341C87.0889 9.61842 84.8664 8.6228 82.4135 8.6228L82.4132 8.62307Z" fill="black"/>
<path d="M126.169 25.1639C124.882 25.1639 123.718 24.6401 122.878 23.8001C122.036 22.9554 121.584 22.0261 121.584 20.4708V11.5297C121.586 11.4903 121.584 11.4533 121.584 11.4134V3.37426C121.584 2.03409 120.503 0.94873 119.155 0.94873C117.806 0.94873 116.712 2.03409 116.712 3.37426V11.4132C116.712 11.441 116.72 11.4664 116.721 11.494L116.722 20.3133C116.722 20.5941 116.762 21.1103 116.762 21.1103C116.941 23.4422 117.956 25.5473 119.519 27.1134C121.246 28.8453 123.631 29.9165 126.262 29.9165C127.611 29.9165 128.705 28.8312 128.705 27.4934C128.705 26.1556 127.517 25.1639 126.169 25.1639H126.169Z" fill="black"/>
</svg>
