<svg xmlns="http://www.w3.org/2000/svg" width="64.121" height="74.521" viewBox="0 0 64.121 74.521"><defs><style>.a,.b{fill:#fad0dc;}.a,.b,.c{fill-rule:evenodd;}.b{stroke:#000;stroke-linecap:round;stroke-linejoin:round;stroke-width:2px;}</style></defs><g transform="translate(-834.776 -465.7)"><path class="a" d="M882.314,505.823c-7.781,12.883-15.505.359-15.505.359-7.71,11.9-15.573,0-15.573,0-2.923,6.974-10.975,4.923-10.975,4.923v28H893.34V511C884.775,514.182,882.314,505.823,882.314,505.823ZM869.031,531.67h-21.9V517.926h21.9Zm17.386,7.231H875.955V517.926h10.462Z"/><path class="b" d="M836.271,503.314s4.014-11.648,7.871-11.963a95.268,95.268,0,0,1,9.916,0l34.944-.14s1.338.533,3.541,3.839,5.116,8.264,5.116,8.264Z"/><path class="c" d="M898.9,503.9v-.149c-.006-.042-.013-.084-.023-.125a.237.237,0,0,0-.028-.085,1.294,1.294,0,0,0-.052-.135.042.042,0,0,0-.012-.03l-4.861-9.554a6.981,6.981,0,0,0-6.329-3.882h-19.61V487.23a10.751,10.751,0,0,0,5.659-2.356l.163-.135a10.8,10.8,0,0,0,3.833-8.242v-.085a1.143,1.143,0,0,0-.768-1.114,3.647,3.647,0,0,1-2.443-3.449,3.711,3.711,0,0,1,.089-.821,3.628,3.628,0,0,1,.247-.723,1.144,1.144,0,0,0-.183-1.333,10.783,10.783,0,0,0-7.745-3.272h0a10.8,10.8,0,0,0-1.155,21.529v2.713h-19.61a6.991,6.991,0,0,0-6.332,3.881l-4.86,9.555v.029a1.128,1.128,0,0,0-.053.136.277.277,0,0,1-.028.084,1.1,1.1,0,0,0-.02.126v.149a8.887,8.887,0,0,0,4.177,7.535v27.641a1.143,1.143,0,0,0,1.143,1.143h30.011a1.143,1.143,0,1,0,0-2.287H841.229V512.46a8.876,8.876,0,0,0,10.131-4.177,8.957,8.957,0,0,0,1.448,1.906,8.881,8.881,0,0,0,14.015-1.906,8.881,8.881,0,0,0,15.463,0,8.873,8.873,0,0,0,10.13,4.177v25.463h-4.663V517.875a1.144,1.144,0,0,0-1.144-1.144H875.595a1.144,1.144,0,0,0-1.144,1.144v21.2a1.144,1.144,0,0,0,1.144,1.143h17.988a1.143,1.143,0,0,0,1.144-1.143V511.438a8.874,8.874,0,0,0,4.17-7.533Zm-40.579-27.41a8.495,8.495,0,0,1,8.5-8.509h0a8.448,8.448,0,0,1,5.563,2.073c-.049.152-.092.305-.128.457a5.93,5.93,0,0,0,3.04,6.583,8.49,8.49,0,0,1-8.365,7.9,1.055,1.055,0,0,0-.112,0c-.039,0-.077.006-.115.011a8.487,8.487,0,0,1-8.381-8.511Zm27.12,42.523v18.9h-8.7v-18.9ZM841.78,494.873a4.655,4.655,0,0,1,4.269-2.619h41.53a4.655,4.655,0,0,1,4.268,2.617l4.005,7.878H837.766Zm6.494,13.683a6.584,6.584,0,0,1-11.13-3.5H850.09a6.562,6.562,0,0,1-1.818,3.5Zm15.463,0a6.584,6.584,0,0,1-11.13-3.5h12.946a6.562,6.562,0,0,1-1.818,3.5Zm15.463,0a6.584,6.584,0,0,1-11.131-3.5h12.947a6.577,6.577,0,0,1-1.816,3.5Zm6.162,0a6.563,6.563,0,0,1-1.83-3.5h12.947a6.572,6.572,0,0,1-11.119,3.5Z"/><path class="c" d="M854.674,528.57a1.145,1.145,0,0,0,1.618.016l.016-.016,9.881-9.879h0a1.187,1.187,0,0,0,.142-.174c.019-.031.037-.063.053-.1a1.115,1.115,0,0,0,.054-.1.978.978,0,0,0,.042-.13.444.444,0,0,1,.025-.085,1.173,1.173,0,0,0,0-.457.293.293,0,0,0-.023-.073,1.168,1.168,0,0,0-.044-.142.846.846,0,0,0-.043-.085,1.28,1.28,0,0,0-.062-.115,1.168,1.168,0,0,0-.1-.123.334.334,0,0,0-.042-.05c-.016-.014-.034-.025-.048-.039a1.024,1.024,0,0,0-.125-.1.975.975,0,0,0-.11-.059c-.037-.018-.057-.034-.089-.048s-.089-.03-.135-.042a.575.575,0,0,1-.083-.023,1.166,1.166,0,0,0-.228-.022H847.042a1.144,1.144,0,0,0-1.156,1.132v13.923a1.144,1.144,0,0,0,1.144,1.144h22.039a1.144,1.144,0,0,0,1.144-1.144V517.865a1.15,1.15,0,0,0-2.3-.011v12.768h-7.871l3.941-3.941a1.143,1.143,0,0,0,.016-1.617l-.016-.017a1.156,1.156,0,0,0-1.633,0l-5.574,5.575h-8.583v-11.6h14.39l-7.909,7.91A1.576,1.576,0,0,0,854.674,528.57Z"/><path class="c" d="M883.088,530.784a1.145,1.145,0,0,0,1.156-1.132v-.6a1.144,1.144,0,0,0-1.144-1.143h-.012a1.143,1.143,0,0,0-1.143,1.143v.59A1.144,1.144,0,0,0,883.088,530.784Z"/><path class="c" d="M867.61,474.6a1.145,1.145,0,0,0,.2-1.606l-.008-.009-.686-.879a1.144,1.144,0,0,0-1.6-.2l-.01.007a1.145,1.145,0,0,0-.2,1.606l.008.009.686.876a1.143,1.143,0,0,0,1.6.2Z"/><path class="c" d="M864.435,477.561l-.952-.585a1.143,1.143,0,0,0-1.576.361l-.011.018a1.144,1.144,0,0,0,.361,1.577l.019.011.951.586a1.145,1.145,0,0,0,1.577-.362l.01-.018a1.143,1.143,0,0,0-.361-1.576Z"/><path class="c" d="M869.016,480.171a1.142,1.142,0,0,0,1.6-.244l0,0,.663-.9a1.145,1.145,0,0,0-.246-1.6l0,0a1.144,1.144,0,0,0-1.6.244l0,0-.663.9a1.145,1.145,0,0,0,.246,1.6Z"/></g></svg>