<svg xmlns="http://www.w3.org/2000/svg" width="43.52" height="46.767" viewBox="0 0 43.52 46.767">
  <g id="curbside_icon_outlined" data-name="curbside icon outlined" transform="translate(-1700.315 -315.309)">
    <g id="Group_4767" data-name="Group 4767" transform="translate(1705.987 315.309)">
      <path id="Path_3434" data-name="Path 3434" d="M1731.481,315.809h-28.042l6.75,39.178h28.044Zm-1.8,21.354a9.7,9.7,0,0,1-6.551,6.24,8.571,8.571,0,0,1-10.384-7.662,8.149,8.149,0,0,1,.8-3.848,4.7,4.7,0,0,1,.569-1.82c.811-1.395,2.381-2.034,3.825-2.562,2.612-.956,6.015-1.111,8.365.614a2.564,2.564,0,0,1,.964,3.18c.007,0,.007.019-.009.082-.032.138-.086.27-.119.409-.022.091-.037.182-.058.272a7.18,7.18,0,0,0-.017.839c.007.164.034.331.039.5,0-.106-.007-.141-.009-.205-.026-.195-.02-.361,0,0,0,.032.007.065.011.093.031.138.065.277.106.413.013.043.028.086.043.13s.045.1.069.136l.018.028.043.028A2.5,2.5,0,0,1,1729.68,337.163Z" transform="translate(-1702.357 -314.728)" fill="none"/>
      <path id="Path_3435" data-name="Path 3435" d="M1738.814,356.649h-28.042a1.085,1.085,0,0,1-1.066-.9l-6.752-39.178a1.08,1.08,0,0,1,1.066-1.265h28.044a1.084,1.084,0,0,1,1.066.9l6.75,39.176a1.08,1.08,0,0,1-1.066,1.265Zm-27.131-2.162h25.847l-6.376-37.016H1705.3Z" transform="translate(-1702.939 -315.309)" fill="#fff"/>
    </g>
    <path id="Path_3436" data-name="Path 3436" d="M1711.66,361.916a1.084,1.084,0,0,1-1.066-.9l-7.641-44.307a1.082,1.082,0,0,1,.885-1.25,1.1,1.1,0,0,1,1.25.882l7.641,44.307a1.082,1.082,0,0,1-.882,1.25A1.1,1.1,0,0,1,1711.66,361.916Z" transform="translate(3.048 0.161)" fill="#fff"/>
    <path id="Path_3437" data-name="Path 3437" d="M1701.4,361.915a.9.9,0,0,1-.132-.009,1.079,1.079,0,0,1-.943-1.2l5.423-44.307a1.09,1.09,0,0,1,1.2-.94,1.075,1.075,0,0,1,.94,1.2l-5.42,44.307A1.084,1.084,0,0,1,1701.4,361.915Z" transform="translate(0 0.161)" fill="#fff"/>
    <path id="Path_3438" data-name="Path 3438" d="M1724.629,361.916a1.083,1.083,0,0,1-1.064-.9l-7.641-44.307a1.083,1.083,0,0,1,.882-1.25,1.094,1.094,0,0,1,1.25.882l7.643,44.307a1.084,1.084,0,0,1-.884,1.25A1.068,1.068,0,0,1,1724.629,361.916Z" transform="translate(18.121 0.161)" fill="#fff"/>
    <g id="Group_2105" data-name="Group 2105" transform="translate(1714.96 325.972)">
      <g id="Group_4769" data-name="Group 4769">
        <path id="Path_3439" data-name="Path 3439" d="M1726.072,328.911a3.176,3.176,0,0,1-1.535-1.157,3.222,3.222,0,0,1-.5-2.538,3.285,3.285,0,0,1,.208-.616,1.153,1.153,0,0,0-.186-1.366,9.88,9.88,0,1,0-1.287,14.89l.584-.456a9.867,9.867,0,0,0,3.5-7.584A1.173,1.173,0,0,0,1726.072,328.911Zm-4.233-4.562c-.032.115-.065.229-.091.348a5.472,5.472,0,0,0,2.737,6.047,7.551,7.551,0,1,1-2.646-6.4Z" transform="translate(-1707.089 -320.241)" fill="#fff"/>
        <g id="Group_4768" data-name="Group 4768" transform="translate(5.124 5.415)">
          <path id="Path_3440" data-name="Path 3440" d="M1712.95,323.19a1.171,1.171,0,0,0-1.643-.192v0a1.167,1.167,0,0,0-.192,1.641l.625.793a1.179,1.179,0,0,0,.783.437h.138a1.168,1.168,0,0,0,.725-.244l0,0a1.169,1.169,0,0,0,.19-1.643Z" transform="translate(-1707.828 -322.746)" fill="#fff"/>
          <path id="Path_3441" data-name="Path 3441" d="M1712.138,325.593l-.858-.53-.063-.037a1.174,1.174,0,1,0-1.167,2.037l.86.53a1.173,1.173,0,0,0,1.228-2Z" transform="translate(-1709.459 -320.278)" fill="#fff"/>
          <path id="Path_3442" data-name="Path 3442" d="M1714.777,325.265a1.171,1.171,0,0,0-1.63.251l-.6.815a1.167,1.167,0,1,0,1.883,1.379l.6-.815A1.173,1.173,0,0,0,1714.777,325.265Z" transform="translate(-1706.133 -320.078)" fill="#fff"/>
        </g>
      </g>
    </g>
    <path id="Path_3443" data-name="Path 3443" d="M1707.578,335.729h-5.892a1.081,1.081,0,1,1,0-2.162h5.892a1.081,1.081,0,0,1,0,2.162Z" transform="translate(0.337 21.217)" fill="#fff"/>
  </g>
</svg>
