<svg xmlns="http://www.w3.org/2000/svg" width="81.258" height="45.766" viewBox="0 0 81.258 45.766">
  <g id="delivery_icon_outlined" data-name="delivery icon outlined" transform="translate(-11.218 -19.3)">
    <path id="Path_37" data-name="Path 37" d="M90.891,39.064a8.282,8.282,0,0,0-4.215-3L75.845,32.631l-6.655-9.716A8.129,8.129,0,0,0,62.335,19.3H23.9a4.8,4.8,0,0,0-4.8,4.8v.805H12.5a1.282,1.282,0,0,0,0,2.565h7.878a1.282,1.282,0,0,0,1.281-1.281V24.1A2.248,2.248,0,0,1,23.9,21.859H56.861v8.347a4.8,4.8,0,0,0,4.8,4.8H74.869l11.058,3.5A5.653,5.653,0,0,1,89.943,44v5.894H84.82a1.276,1.276,0,1,0,0,2.552h5.123v.96A2.247,2.247,0,0,1,87.7,55.649H83.535a7.892,7.892,0,0,0-15.494,0H42.129a7.892,7.892,0,0,0-15.494,0H23.9a2.247,2.247,0,0,1-2.24-2.242v-.96h3.7a1.276,1.276,0,0,0,0-2.552h-3.7V42.953a1.282,1.282,0,0,0-1.283-1.281H17.751a1.282,1.282,0,0,0,0,2.565H19.1V53.42a4.8,4.8,0,0,0,4.8,4.8h2.663a7.89,7.89,0,0,0,15.64,0H67.949a7.891,7.891,0,0,0,15.642,0h4.082a4.8,4.8,0,0,0,4.8-4.8V44.005A8.282,8.282,0,0,0,90.891,39.064ZM60.072,31.779a2.227,2.227,0,0,1-.657-1.58V21.852h2.921a5.56,5.56,0,0,1,4.75,2.5l5.542,8.087H61.654a2.239,2.239,0,0,1-1.585-.659ZM38.163,60.922a5.341,5.341,0,1,1,1.563-3.776A5.346,5.346,0,0,1,38.163,60.922Zm41.386,0a5.341,5.341,0,1,1,1.563-3.776,5.338,5.338,0,0,1-1.563,3.776Z" transform="translate(0 0)" fill="#fff" fill-rule="evenodd"/>
    <g id="Group_384" data-name="Group 384" transform="translate(29.447 25.229)">
      <path id="Path_38" data-name="Path 38" d="M36.628,26.46a1.253,1.253,0,0,0-.2-1.471,9.815,9.815,0,0,0-7.044-2.973h0a9.812,9.812,0,1,0,0,19.624h.035A9.784,9.784,0,0,0,35.741,39.3l.164-.142a9.814,9.814,0,0,0,3.3-7.334v-.072h0a1.256,1.256,0,0,0-.849-1.214,3,3,0,0,1-1.825-3.824,2.418,2.418,0,0,1,.1-.247Zm0,6.049a7.267,7.267,0,0,1-7.238,6.6h0a7.285,7.285,0,1,1,0-14.57h0a7.208,7.208,0,0,1,4.638,1.681c-.026.092-.05.181-.072.273a5.5,5.5,0,0,0,2.672,6.025Z" transform="translate(-19.569 -22.016)" fill="#fff" fill-rule="evenodd"/>
      <path id="Path_39" data-name="Path 39" d="M26.118,25.7l-.616-.777a1.271,1.271,0,0,0-2,1.576h0l.616.775A1.27,1.27,0,0,0,26.115,25.7h0Z" transform="translate(-15.234 -19.144)" fill="#fff" fill-rule="evenodd"/>
      <path id="Path_40" data-name="Path 40" d="M24.671,27.227l-.845-.517a1.276,1.276,0,1,0-1.336,2.174h0l.845.52a1.276,1.276,0,1,0,1.336-2.174h0Z" transform="translate(-16.833 -16.688)" fill="#fff" fill-rule="evenodd"/>
      <path id="Path_41" data-name="Path 41" d="M27.266,26.922a1.276,1.276,0,0,0-1.781.275L24.9,28A1.274,1.274,0,0,0,26.951,29.5l.585-.8a1.272,1.272,0,0,0-.268-1.779Z" transform="translate(-13.557 -16.504)" fill="#fff" fill-rule="evenodd"/>
    </g>
    <path id="Path_42" data-name="Path 42" d="M25.384,34.583a1.275,1.275,0,0,0,1.273,1.277H49.286a1.276,1.276,0,1,0,0-2.552H26.659a1.275,1.275,0,0,0-1.275,1.275Z" transform="translate(16.756 16.569)" fill="#fff" fill-rule="evenodd"/>
    <path id="Path_43" data-name="Path 43" d="M22.684,36.054h-.21a1.276,1.276,0,1,0,0,2.552h.21a1.276,1.276,0,0,0,0-2.552Z" transform="translate(11.805 19.817)" fill="#fff" fill-rule="evenodd"/>
    <path id="Path_44" data-name="Path 44" d="M41.638,36.054h-.2a1.276,1.276,0,0,0,0,2.552h.21a1.276,1.276,0,0,0,0-2.552h-.011Z" transform="translate(34.239 19.817)" fill="#fff" fill-rule="evenodd"/>
    <path id="Path_45" data-name="Path 45" d="M20.241,26.984A1.282,1.282,0,0,0,18.957,25.7h-5.25a1.282,1.282,0,1,0,0,2.565h5.25a1.284,1.284,0,0,0,1.283-1.283Z" transform="translate(1.426 7.574)" fill="#fff" fill-rule="evenodd"/>
  </g>
</svg>
