<svg xmlns="http://www.w3.org/2000/svg" width="44" height="46" viewBox="0 0 44 46">
  <g id="gift_card_icon_outlined" data-name="gift card icon outlined" transform="translate(0 0.364)">
    <g id="Rectangle_243" data-name="Rectangle 243" transform="translate(0 -0.363)" fill="none" stroke="#fff" stroke-width="2.5">
      <rect width="44" height="46" rx="2" stroke="none"/>
      <rect x="1.25" y="1.25" width="41.5" height="43.5" rx="0.75" fill="none"/>
    </g>
    <path id="Path_1367" data-name="Path 1367" d="M-21426.846-13804v45.4" transform="translate(21441.461 13804.167)" fill="none" stroke="#fff" stroke-width="2.5"/>
    <g id="Group_1327" data-name="Group 1327" transform="translate(3.874 15.93)">
      <g id="Path_1370" data-name="Path 1370" transform="translate(9.049 2.448) rotate(-13)" fill="none">
        <path d="M5.363.008c2.866-.142,5.112,1.606,5.017,3.906S7.885,8.193,5.02,8.335-.092,6.729,0,4.429,2.5.15,5.363.008Z" stroke="none"/>
        <path d="M 5.688230991363525 2.500003337860107 C 5.621931076049805 2.500003337860107 5.554281234741211 2.501693248748779 5.487161159515381 2.50502347946167 C 4.647261142730713 2.546733379364014 3.826301097869873 2.850473403930664 3.234770774841309 3.338373184204102 C 2.784280776977539 3.709933280944824 2.516750812530518 4.145113468170166 2.500771045684814 4.532342910766602 C 2.494610786437988 4.681643486022949 2.515881061553955 4.910823345184326 2.770541191101074 5.176213264465332 C 3.171360969543457 5.593913078308105 3.890621185302734 5.843283176422119 4.694571018218994 5.843283176422119 C 4.760870933532715 5.843283176422119 4.828520774841309 5.841593265533447 4.895640850067139 5.838263511657715 C 5.735540866851807 5.796553611755371 6.556500911712646 5.492813110351562 7.148031234741211 5.004913330078125 C 7.59852123260498 4.633353233337402 7.866050720214844 4.198173046112061 7.882030963897705 3.810943126678467 C 7.888191223144531 3.661643028259277 7.866920948028564 3.4324631690979 7.612260818481445 3.167073249816895 C 7.211441040039062 2.749373435974121 6.492180824279785 2.500003337860107 5.688230991363525 2.500003337860107 M 5.688229084014893 9.5367431640625e-07 C 8.396832466125488 9.5367431640625e-07 10.47115802764893 1.702120304107666 10.37990093231201 3.914003372192383 C 10.28504085540771 6.213463306427002 7.88516092300415 8.192893028259277 5.019630908966064 8.335183143615723 C 2.154098510742188 8.477473258972168 -0.09196949005126953 6.728743076324463 0.002901077270507812 4.429283142089844 C 0.09776115417480469 2.129823207855225 2.497641086578369 0.1503934860229492 5.363171100616455 0.008103370666503906 C 5.472307205200195 0.002683639526367187 5.580985069274902 9.5367431640625e-07 5.688229084014893 9.5367431640625e-07 Z" stroke="none" fill="#fff"/>
      </g>
      <g id="Path_1371" data-name="Path 1371" transform="matrix(-0.966, -0.259, 0.259, -0.966, 10.063, 10.69)" fill="none">
        <path d="M5.019.01c2.875.157,5.29,2.133,5.4,4.413s-2.141,4-5.016,3.843S.108,6.133,0,3.853,2.144-.147,5.019.01Z" stroke="none"/>
        <path d="M 4.656202793121338 2.500002861022949 C 3.850072860717773 2.500002861022949 3.135462760925293 2.744312763214111 2.744622707366943 3.153542995452881 C 2.513183116912842 3.395863056182861 2.494672775268555 3.60342264175415 2.500883102416992 3.738472938537598 C 2.540642738342285 4.603232860565186 3.874783039093018 5.678882598876953 5.535283088684082 5.769682884216309 C 5.610952854156494 5.773822784423828 5.687122821807861 5.775922775268555 5.761682987213135 5.775922775268555 C 6.567812919616699 5.775922775268555 7.28242301940918 5.531612873077393 7.673262596130371 5.122383117675781 C 7.904703140258789 4.880063056945801 7.923213005065918 4.672502517700195 7.91700267791748 4.537452697753906 C 7.877243041992188 3.672692775726318 6.543103218078613 2.597043037414551 4.882602691650391 2.506242752075195 C 4.806932926177979 2.502102851867676 4.730762958526611 2.500002861022949 4.656202793121338 2.500002861022949 M 4.656201839447021 1.9073486328125e-06 C 4.776093006134033 1.9073486328125e-06 4.896851539611816 0.003284454345703125 5.019153118133545 0.009972572326660156 C 7.894022941589355 0.1671829223632812 10.30954265594482 2.142802715301514 10.41436290740967 4.422633171081543 C 10.51918315887451 6.702452659606934 8.273608207702637 8.423172950744629 5.398732662200928 8.265953063964844 C 2.523862838745117 8.108742713928223 0.1083431243896484 6.13312292098999 0.003522872924804687 3.853292942047119 C -0.09683799743652344 1.670459747314453 1.957880020141602 1.9073486328125e-06 4.656201839447021 1.9073486328125e-06 Z" stroke="none" fill="#fff"/>
      </g>
      <path id="Path_1368" data-name="Path 1368" d="M-21423.473-13784.814s-2.566.629-5.7,6.984" transform="translate(21434.084 13793.433)" fill="none" stroke="#fff" stroke-linecap="round" stroke-width="2.5"/>
      <path id="Path_1369" data-name="Path 1369" d="M-21429.184-13784.814s2.582.629,5.711,6.984" transform="translate(21440.65 13793.433)" fill="none" stroke="#fff" stroke-linecap="round" stroke-width="2.5"/>
    </g>
    <circle id="Ellipse_207" data-name="Ellipse 207" cx="5.5" cy="5.5" r="5.5" transform="translate(27 5.637)" fill="#fff"/>
  </g>
</svg>
