<svg id="Group_506" data-name="Group 506" xmlns="http://www.w3.org/2000/svg" width="29" height="29" viewBox="0 0 29 29">
  <path id="Path_999" data-name="Path 999" d="M18.579,6.692c3.872,0,4.33.015,5.859.084a8.026,8.026,0,0,1,2.692.5,4.8,4.8,0,0,1,2.752,2.752,8.025,8.025,0,0,1,.5,2.692c.07,1.529.084,1.988.084,5.859s-.015,4.33-.084,5.859a8.026,8.026,0,0,1-.5,2.692,4.8,4.8,0,0,1-2.752,2.752,8.026,8.026,0,0,1-2.692.5c-1.529.07-1.987.084-5.859.084s-4.33-.015-5.859-.084a8.025,8.025,0,0,1-2.692-.5,4.8,4.8,0,0,1-2.752-2.752,8.026,8.026,0,0,1-.5-2.692c-.07-1.529-.084-1.988-.084-5.859s.015-4.33.084-5.859a8.025,8.025,0,0,1,.5-2.692,4.8,4.8,0,0,1,2.752-2.752,8.025,8.025,0,0,1,2.692-.5c1.529-.07,1.988-.084,5.859-.084m0-2.613c-3.938,0-4.432.017-5.978.087a10.643,10.643,0,0,0-3.52.674A7.415,7.415,0,0,0,4.84,9.081a10.643,10.643,0,0,0-.674,3.52c-.071,1.547-.087,2.04-.087,5.978s.017,4.432.087,5.978a10.643,10.643,0,0,0,.674,3.52,7.415,7.415,0,0,0,4.241,4.241,10.643,10.643,0,0,0,3.52.674c1.547.071,2.04.087,5.978.087s4.432-.017,5.978-.087a10.643,10.643,0,0,0,3.52-.674,7.415,7.415,0,0,0,4.241-4.241,10.643,10.643,0,0,0,.674-3.52c.071-1.547.087-2.04.087-5.978s-.017-4.432-.087-5.978a10.643,10.643,0,0,0-.674-3.52A7.415,7.415,0,0,0,28.077,4.84a10.643,10.643,0,0,0-3.52-.674c-1.547-.071-2.04-.087-5.978-.087Z" transform="translate(-4.079 -4.079)" fill="#fff"/>
  <path id="Path_1000" data-name="Path 1000" d="M134.081,126.635a7.446,7.446,0,1,0,7.446,7.446A7.446,7.446,0,0,0,134.081,126.635Zm0,12.279a4.833,4.833,0,1,1,4.833-4.833A4.833,4.833,0,0,1,134.081,138.914Z" transform="translate(-119.581 -119.581)" fill="#fff"/>
  <ellipse id="Ellipse_63" data-name="Ellipse 63" cx="1.74" cy="1.74" rx="1.74" ry="1.74" transform="translate(20.5 5.02)" fill="#fff"/>
</svg>
