<?xml version="1.0" encoding="UTF-8" standalone="no"?>
<svg width="16px" height="21px" viewBox="0 0 16 21" version="1.1" xmlns="http://www.w3.org/2000/svg" xmlns:xlink="http://www.w3.org/1999/xlink">
    <!-- Generator: Sketch 49.2 (51160) - http://www.bohemiancoding.com/sketch -->
    <title>location-icn</title>
    <desc>Created with Sketch.</desc>
    <defs>
        <polygon id="path-1" points="0 0 15.12 0 15.12 21 0 21"></polygon>
    </defs>
    <g id="Page-1" stroke="none" stroke-width="1" fill="none" fill-rule="evenodd">
        <g id="Pay" transform="translate(-316.000000, -131.000000)">
            <g id="location-icn" transform="translate(316.000000, 131.000000)">
                <mask id="mask-2" fill="white">
                    <use xlink:href="#path-1"></use>
                </mask>
                <g id="Clip-2"></g>
                <path d="M14.8829315,5.22979915 C15.7720368,8.69683948 14.303591,13.9019214 8.02482606,20.7913905 C8.00751386,20.8112849 7.98834678,20.8299735 7.96670653,20.8486621 C7.714443,21.0681027 7.32677332,21.0463998 7.10233297,20.7998306 C0.81738507,13.9055386 -0.652915581,8.69864806 0.237426277,5.22979915 C1.13147789,1.74346734 4.34721956,0 7.55986976,0 C10.77252,0 13.9882616,1.74346734 14.8829315,5.22979915 M6.1693289,3.34526288 C6.48713148,3.23313116 6.83770359,3.39288871 6.95270608,3.70275808 C7.06770857,4.01202459 6.90386093,4.35444833 6.58605835,4.46658004 C6.03454104,4.66311198 5.56278351,5.02121004 5.23261507,5.48179408 C4.91233932,5.92790951 4.72437826,6.47409949 4.72437826,7.06550386 C4.72437826,7.82932582 5.04218084,8.52020188 5.555364,9.0205746 C6.06792886,9.52094731 6.77711088,9.83021382 7.55986976,9.83021382 C8.34324694,9.83021382 9.05181067,9.52094731 9.56499382,9.0205746 C10.078177,8.52020188 10.3953613,7.82932582 10.3953613,7.06550386 C10.3953613,6.47409949 10.2074002,5.92790951 9.88774274,5.48179408 C9.5575743,5.02121004 9.08519849,4.66311198 8.53368117,4.46658004 C8.21649688,4.35444833 8.05203095,4.01202459 8.16765174,3.70275808 C8.28203593,3.39288871 8.63322633,3.23313116 8.95041062,3.34526288 C9.73997073,3.62559217 10.4151466,4.13922777 10.888759,4.7999609 C11.3512422,5.44381398 11.6226728,6.2257217 11.6226728,7.06550386 C11.6226728,8.15908953 11.1676092,9.14958636 10.4330771,9.86638534 C9.69730851,10.5831843 8.68145318,11.0268883 7.55986976,11.0268883 C6.43890463,11.0268883 5.42243101,10.5831843 4.68789898,9.86638534 C3.95274865,9.14958636 3.49768504,8.15908953 3.49768504,7.06550386 C3.49768504,6.2257217 3.76849735,5.44381398 4.23098048,4.7999609 C4.70459289,4.13922777 5.38038709,3.62559217 6.1693289,3.34526288 M7.55986976,19.4964501 C13.140582,13.2116482 14.4767131,8.56843058 13.6939542,5.51977418 C12.9550941,2.63750677 10.2587185,1.1966745 7.55986976,1.1966745 C4.86102101,1.1966745 2.16526372,2.63750677 1.42516705,5.51977418 C0.643644749,8.56843058 1.97977583,13.2116482 7.55986976,19.4964501" id="Fill-1" fill="#000000" mask="url(#mask-2)"></path>
            </g>
        </g>
    </g>
</svg>