<?xml version="1.0" encoding="utf-8"?>
<!-- Generator: Adobe Illustrator 23.0.4, SVG Export Plug-In . SVG Version: 6.00 Build 0)  -->
<svg version="1.1" id="Layer_1" xmlns="http://www.w3.org/2000/svg" xmlns:xlink="http://www.w3.org/1999/xlink" x="0px" y="0px"
	 viewBox="0 0 1155 1155" style="enable-background:new 0 0 1155 1155;" xml:space="preserve">
<style type="text/css">
	.st0{fill:#FFFFFF;}
	.st1{fill:none;}
</style>
<rect width="1155" height="1155"/>
<g transform="translate(70,70)">
	<g transform="translate(315,0) scale(0.35,0.35)">
		<g transform="">
			<rect x="0" y="0" class="st0" width="100" height="100"/>
		</g>
	</g>
	<g transform="translate(350,0) scale(0.35,0.35)">
		<g transform="">
			<rect x="0" y="0" class="st0" width="100" height="100"/>
		</g>
	</g>
	<g transform="translate(420,0) scale(0.35,0.35)">
		<g transform="">
			<rect x="0" y="0" class="st0" width="100" height="100"/>
		</g>
	</g>
	<g transform="translate(455,0) scale(0.35,0.35)">
		<g transform="">
			<rect x="0" y="0" class="st0" width="100" height="100"/>
		</g>
	</g>
	<g transform="translate(525,0) scale(0.35,0.35)">
		<g transform="">
			<rect x="0" y="0" class="st0" width="100" height="100"/>
		</g>
	</g>
	<g transform="translate(560,0) scale(0.35,0.35)">
		<g transform="">
			<rect x="0" y="0" class="st0" width="100" height="100"/>
		</g>
	</g>
	<g transform="translate(595,0) scale(0.35,0.35)">
		<g transform="">
			<rect x="0" y="0" class="st0" width="100" height="100"/>
		</g>
	</g>
	<g transform="translate(630,0) scale(0.35,0.35)">
		<g transform="">
			<rect x="0" y="0" class="st0" width="100" height="100"/>
		</g>
	</g>
	<g transform="translate(665,0) scale(0.35,0.35)">
		<g transform="">
			<rect x="0" y="0" class="st0" width="100" height="100"/>
		</g>
	</g>
	<g transform="translate(420,35) scale(0.35,0.35)">
		<g transform="">
			<rect x="0" y="0" class="st0" width="100" height="100"/>
		</g>
	</g>
	<g transform="translate(490,35) scale(0.35,0.35)">
		<g transform="">
			<rect x="0" y="0" class="st0" width="100" height="100"/>
		</g>
	</g>
	<g transform="translate(700,35) scale(0.35,0.35)">
		<g transform="">
			<rect x="0" y="0" class="st0" width="100" height="100"/>
		</g>
	</g>
	<g transform="translate(280,70) scale(0.35,0.35)">
		<g transform="">
			<rect x="0" y="0" class="st0" width="100" height="100"/>
		</g>
	</g>
	<g transform="translate(350,70) scale(0.35,0.35)">
		<g transform="">
			<rect x="0" y="0" class="st0" width="100" height="100"/>
		</g>
	</g>
	<g transform="translate(385,70) scale(0.35,0.35)">
		<g transform="">
			<rect x="0" y="0" class="st0" width="100" height="100"/>
		</g>
	</g>
	<g transform="translate(420,70) scale(0.35,0.35)">
		<g transform="">
			<rect x="0" y="0" class="st0" width="100" height="100"/>
		</g>
	</g>
	<g transform="translate(490,70) scale(0.35,0.35)">
		<g transform="">
			<rect x="0" y="0" class="st0" width="100" height="100"/>
		</g>
	</g>
	<g transform="translate(560,70) scale(0.35,0.35)">
		<g transform="">
			<rect x="0" y="0" class="st0" width="100" height="100"/>
		</g>
	</g>
	<g transform="translate(700,70) scale(0.35,0.35)">
		<g transform="">
			<rect x="0" y="0" class="st0" width="100" height="100"/>
		</g>
	</g>
	<g transform="translate(280,105) scale(0.35,0.35)">
		<g transform="">
			<rect x="0" y="0" class="st0" width="100" height="100"/>
		</g>
	</g>
	<g transform="translate(315,105) scale(0.35,0.35)">
		<g transform="">
			<rect x="0" y="0" class="st0" width="100" height="100"/>
		</g>
	</g>
	<g transform="translate(350,105) scale(0.35,0.35)">
		<g transform="">
			<rect x="0" y="0" class="st0" width="100" height="100"/>
		</g>
	</g>
	<g transform="translate(420,105) scale(0.35,0.35)">
		<g transform="">
			<rect x="0" y="0" class="st0" width="100" height="100"/>
		</g>
	</g>
	<g transform="translate(490,105) scale(0.35,0.35)">
		<g transform="">
			<rect x="0" y="0" class="st0" width="100" height="100"/>
		</g>
	</g>
	<g transform="translate(595,105) scale(0.35,0.35)">
		<g transform="">
			<rect x="0" y="0" class="st0" width="100" height="100"/>
		</g>
	</g>
	<g transform="translate(665,105) scale(0.35,0.35)">
		<g transform="">
			<rect x="0" y="0" class="st0" width="100" height="100"/>
		</g>
	</g>
	<g transform="translate(350,140) scale(0.35,0.35)">
		<g transform="">
			<rect x="0" y="0" class="st0" width="100" height="100"/>
		</g>
	</g>
	<g transform="translate(385,140) scale(0.35,0.35)">
		<g transform="">
			<rect x="0" y="0" class="st0" width="100" height="100"/>
		</g>
	</g>
	<g transform="translate(420,140) scale(0.35,0.35)">
		<g transform="">
			<rect x="0" y="0" class="st0" width="100" height="100"/>
		</g>
	</g>
	<g transform="translate(525,140) scale(0.35,0.35)">
		<g transform="">
			<rect x="0" y="0" class="st0" width="100" height="100"/>
		</g>
	</g>
	<g transform="translate(560,140) scale(0.35,0.35)">
		<g transform="">
			<rect x="0" y="0" class="st0" width="100" height="100"/>
		</g>
	</g>
	<g transform="translate(595,140) scale(0.35,0.35)">
		<g transform="">
			<rect x="0" y="0" class="st0" width="100" height="100"/>
		</g>
	</g>
	<g transform="translate(630,140) scale(0.35,0.35)">
		<g transform="">
			<rect x="0" y="0" class="st0" width="100" height="100"/>
		</g>
	</g>
	<g transform="translate(665,140) scale(0.35,0.35)">
		<g transform="">
			<rect x="0" y="0" class="st0" width="100" height="100"/>
		</g>
	</g>
	<g transform="translate(315,175) scale(0.35,0.35)">
		<g transform="">
			<rect x="0" y="0" class="st0" width="100" height="100"/>
		</g>
	</g>
	<g transform="translate(385,175) scale(0.35,0.35)">
		<g transform="">
			<rect x="0" y="0" class="st0" width="100" height="100"/>
		</g>
	</g>
	<g transform="translate(490,175) scale(0.35,0.35)">
		<g transform="">
			<rect x="0" y="0" class="st0" width="100" height="100"/>
		</g>
	</g>
	<g transform="translate(595,175) scale(0.35,0.35)">
		<g transform="">
			<rect x="0" y="0" class="st0" width="100" height="100"/>
		</g>
	</g>
	<g transform="translate(630,175) scale(0.35,0.35)">
		<g transform="">
			<rect x="0" y="0" class="st0" width="100" height="100"/>
		</g>
	</g>
	<g transform="translate(280,210) scale(0.35,0.35)">
		<g transform="">
			<rect x="0" y="0" class="st0" width="100" height="100"/>
		</g>
	</g>
	<g transform="translate(350,210) scale(0.35,0.35)">
		<g transform="">
			<rect x="0" y="0" class="st0" width="100" height="100"/>
		</g>
	</g>
	<g transform="translate(420,210) scale(0.35,0.35)">
		<g transform="">
			<rect x="0" y="0" class="st0" width="100" height="100"/>
		</g>
	</g>
	<g transform="translate(490,210) scale(0.35,0.35)">
		<g transform="">
			<rect x="0" y="0" class="st0" width="100" height="100"/>
		</g>
	</g>
	<g transform="translate(560,210) scale(0.35,0.35)">
		<g transform="">
			<rect x="0" y="0" class="st0" width="100" height="100"/>
		</g>
	</g>
	<g transform="translate(630,210) scale(0.35,0.35)">
		<g transform="">
			<rect x="0" y="0" class="st0" width="100" height="100"/>
		</g>
	</g>
	<g transform="translate(700,210) scale(0.35,0.35)">
		<g transform="">
			<rect x="0" y="0" class="st0" width="100" height="100"/>
		</g>
	</g>
	<g transform="translate(350,245) scale(0.35,0.35)">
		<g transform="">
			<rect x="0" y="0" class="st0" width="100" height="100"/>
		</g>
	</g>
	<g transform="translate(385,245) scale(0.35,0.35)">
		<g transform="">
			<rect x="0" y="0" class="st0" width="100" height="100"/>
		</g>
	</g>
	<g transform="translate(420,245) scale(0.35,0.35)">
		<g transform="">
			<rect x="0" y="0" class="st0" width="100" height="100"/>
		</g>
	</g>
	<g transform="translate(455,245) scale(0.35,0.35)">
		<g transform="">
			<rect x="0" y="0" class="st0" width="100" height="100"/>
		</g>
	</g>
	<g transform="translate(560,245) scale(0.35,0.35)">
		<g transform="">
			<rect x="0" y="0" class="st0" width="100" height="100"/>
		</g>
	</g>
	<g transform="translate(700,245) scale(0.35,0.35)">
		<g transform="">
			<rect x="0" y="0" class="st0" width="100" height="100"/>
		</g>
	</g>
	<g transform="translate(105,280) scale(0.35,0.35)">
		<g transform="">
			<rect x="0" y="0" class="st0" width="100" height="100"/>
		</g>
	</g>
	<g transform="translate(140,280) scale(0.35,0.35)">
		<g transform="">
			<rect x="0" y="0" class="st0" width="100" height="100"/>
		</g>
	</g>
	<g transform="translate(210,280) scale(0.35,0.35)">
		<g transform="">
			<rect x="0" y="0" class="st0" width="100" height="100"/>
		</g>
	</g>
	<g transform="translate(245,280) scale(0.35,0.35)">
		<g transform="">
			<rect x="0" y="0" class="st0" width="100" height="100"/>
		</g>
	</g>
	<g transform="translate(350,280) scale(0.35,0.35)">
		<g transform="">
			<rect x="0" y="0" class="st0" width="100" height="100"/>
		</g>
	</g>
	<g transform="translate(455,280) scale(0.35,0.35)">
		<g transform="">
			<rect x="0" y="0" class="st0" width="100" height="100"/>
		</g>
	</g>
	<g transform="translate(490,280) scale(0.35,0.35)">
		<g transform="">
			<rect x="0" y="0" class="st0" width="100" height="100"/>
		</g>
	</g>
	<g transform="translate(560,280) scale(0.35,0.35)">
		<g transform="">
			<rect x="0" y="0" class="st0" width="100" height="100"/>
		</g>
	</g>
	<g transform="translate(630,280) scale(0.35,0.35)">
		<g transform="">
			<rect x="0" y="0" class="st0" width="100" height="100"/>
		</g>
	</g>
	<g transform="translate(665,280) scale(0.35,0.35)">
		<g transform="">
			<rect x="0" y="0" class="st0" width="100" height="100"/>
		</g>
	</g>
	<g transform="translate(875,280) scale(0.35,0.35)">
		<g transform="">
			<rect x="0" y="0" class="st0" width="100" height="100"/>
		</g>
	</g>
	<g transform="translate(910,280) scale(0.35,0.35)">
		<g transform="">
			<rect x="0" y="0" class="st0" width="100" height="100"/>
		</g>
	</g>
	<g transform="translate(0,315) scale(0.35,0.35)">
		<g transform="">
			<rect x="0" y="0" class="st0" width="100" height="100"/>
		</g>
	</g>
	<g transform="translate(70,315) scale(0.35,0.35)">
		<g transform="">
			<rect x="0" y="0" class="st0" width="100" height="100"/>
		</g>
	</g>
	<g transform="translate(105,315) scale(0.35,0.35)">
		<g transform="">
			<rect x="0" y="0" class="st0" width="100" height="100"/>
		</g>
	</g>
	<g transform="translate(245,315) scale(0.35,0.35)">
		<g transform="">
			<rect x="0" y="0" class="st0" width="100" height="100"/>
		</g>
	</g>
	<g transform="translate(280,315) scale(0.35,0.35)">
		<g transform="">
			<rect x="0" y="0" class="st0" width="100" height="100"/>
		</g>
	</g>
	<g transform="translate(350,315) scale(0.35,0.35)">
		<g transform="">
			<rect x="0" y="0" class="st0" width="100" height="100"/>
		</g>
	</g>
	<g transform="translate(420,315) scale(0.35,0.35)">
		<g transform="">
			<rect x="0" y="0" class="st0" width="100" height="100"/>
		</g>
	</g>
	<g transform="translate(455,315) scale(0.35,0.35)">
		<g transform="">
			<rect x="0" y="0" class="st0" width="100" height="100"/>
		</g>
	</g>
	<g transform="translate(525,315) scale(0.35,0.35)">
		<g transform="">
			<rect x="0" y="0" class="st0" width="100" height="100"/>
		</g>
	</g>
	<g transform="translate(560,315) scale(0.35,0.35)">
		<g transform="">
			<rect x="0" y="0" class="st0" width="100" height="100"/>
		</g>
	</g>
	<g transform="translate(700,315) scale(0.35,0.35)">
		<g transform="">
			<rect x="0" y="0" class="st0" width="100" height="100"/>
		</g>
	</g>
	<g transform="translate(840,315) scale(0.35,0.35)">
		<g transform="">
			<rect x="0" y="0" class="st0" width="100" height="100"/>
		</g>
	</g>
	<g transform="translate(875,315) scale(0.35,0.35)">
		<g transform="">
			<rect x="0" y="0" class="st0" width="100" height="100"/>
		</g>
	</g>
	<g transform="translate(945,315) scale(0.35,0.35)">
		<g transform="">
			<rect x="0" y="0" class="st0" width="100" height="100"/>
		</g>
	</g>
	<g transform="translate(0,350) scale(0.35,0.35)">
		<g transform="">
			<rect x="0" y="0" class="st0" width="100" height="100"/>
		</g>
	</g>
	<g transform="translate(70,350) scale(0.35,0.35)">
		<g transform="">
			<rect x="0" y="0" class="st0" width="100" height="100"/>
		</g>
	</g>
	<g transform="translate(105,350) scale(0.35,0.35)">
		<g transform="">
			<rect x="0" y="0" class="st0" width="100" height="100"/>
		</g>
	</g>
	<g transform="translate(140,350) scale(0.35,0.35)">
		<g transform="">
			<rect x="0" y="0" class="st0" width="100" height="100"/>
		</g>
	</g>
	<g transform="translate(210,350) scale(0.35,0.35)">
		<g transform="">
			<rect x="0" y="0" class="st0" width="100" height="100"/>
		</g>
	</g>
	<g transform="translate(315,350) scale(0.35,0.35)">
		<g transform="">
			<rect x="0" y="0" class="st0" width="100" height="100"/>
		</g>
	</g>
	<g transform="translate(350,350) scale(0.35,0.35)">
		<g transform="">
			<rect x="0" y="0" class="st0" width="100" height="100"/>
		</g>
	</g>
	<g transform="translate(420,350) scale(0.35,0.35)">
		<g transform="">
			<rect x="0" y="0" class="st0" width="100" height="100"/>
		</g>
	</g>
	<g transform="translate(455,350) scale(0.35,0.35)">
		<g transform="">
			<rect x="0" y="0" class="st0" width="100" height="100"/>
		</g>
	</g>
	<g transform="translate(595,350) scale(0.35,0.35)">
		<g transform="">
			<rect x="0" y="0" class="st0" width="100" height="100"/>
		</g>
	</g>
	<g transform="translate(700,350) scale(0.35,0.35)">
		<g transform="">
			<rect x="0" y="0" class="st0" width="100" height="100"/>
		</g>
	</g>
	<g transform="translate(735,350) scale(0.35,0.35)">
		<g transform="">
			<rect x="0" y="0" class="st0" width="100" height="100"/>
		</g>
	</g>
	<g transform="translate(770,350) scale(0.35,0.35)">
		<g transform="">
			<rect x="0" y="0" class="st0" width="100" height="100"/>
		</g>
	</g>
	<g transform="translate(840,350) scale(0.35,0.35)">
		<g transform="">
			<rect x="0" y="0" class="st0" width="100" height="100"/>
		</g>
	</g>
	<g transform="translate(910,350) scale(0.35,0.35)">
		<g transform="">
			<rect x="0" y="0" class="st0" width="100" height="100"/>
		</g>
	</g>
	<g transform="translate(70,385) scale(0.35,0.35)">
		<g transform="">
			<rect x="0" y="0" class="st0" width="100" height="100"/>
		</g>
	</g>
	<g transform="translate(105,385) scale(0.35,0.35)">
		<g transform="">
			<rect x="0" y="0" class="st0" width="100" height="100"/>
		</g>
	</g>
	<g transform="translate(315,385) scale(0.35,0.35)">
		<g transform="">
			<rect x="0" y="0" class="st0" width="100" height="100"/>
		</g>
	</g>
	<g transform="translate(350,385) scale(0.35,0.35)">
		<g transform="">
			<rect x="0" y="0" class="st0" width="100" height="100"/>
		</g>
	</g>
	<g transform="translate(385,385) scale(0.35,0.35)">
		<g transform="">
			<rect x="0" y="0" class="st0" width="100" height="100"/>
		</g>
	</g>
	<g transform="translate(420,385) scale(0.35,0.35)">
		<g transform="">
			<rect x="0" y="0" class="st0" width="100" height="100"/>
		</g>
	</g>
	<g transform="translate(560,385) scale(0.35,0.35)">
		<g transform="">
			<rect x="0" y="0" class="st0" width="100" height="100"/>
		</g>
	</g>
	<g transform="translate(595,385) scale(0.35,0.35)">
		<g transform="">
			<rect x="0" y="0" class="st0" width="100" height="100"/>
		</g>
	</g>
	<g transform="translate(630,385) scale(0.35,0.35)">
		<g transform="">
			<rect x="0" y="0" class="st0" width="100" height="100"/>
		</g>
	</g>
	<g transform="translate(980,385) scale(0.35,0.35)">
		<g transform="">
			<rect x="0" y="0" class="st0" width="100" height="100"/>
		</g>
	</g>
	<g transform="translate(0,420) scale(0.35,0.35)">
		<g transform="">
			<rect x="0" y="0" class="st0" width="100" height="100"/>
		</g>
	</g>
	<g transform="translate(70,420) scale(0.35,0.35)">
		<g transform="">
			<rect x="0" y="0" class="st0" width="100" height="100"/>
		</g>
	</g>
	<g transform="translate(105,420) scale(0.35,0.35)">
		<g transform="">
			<rect x="0" y="0" class="st0" width="100" height="100"/>
		</g>
	</g>
	<g transform="translate(175,420) scale(0.35,0.35)">
		<g transform="">
			<rect x="0" y="0" class="st0" width="100" height="100"/>
		</g>
	</g>
	<g transform="translate(210,420) scale(0.35,0.35)">
		<g transform="">
			<rect x="0" y="0" class="st0" width="100" height="100"/>
		</g>
	</g>
	<g transform="translate(245,420) scale(0.35,0.35)">
		<g transform="">
			<rect x="0" y="0" class="st0" width="100" height="100"/>
		</g>
	</g>
	<g transform="translate(280,420) scale(0.35,0.35)">
		<g transform="">
			<rect x="0" y="0" class="st0" width="100" height="100"/>
		</g>
	</g>
	<g transform="translate(315,420) scale(0.35,0.35)">
		<g transform="">
			<rect x="0" y="0" class="st0" width="100" height="100"/>
		</g>
	</g>
	<g transform="translate(350,420) scale(0.35,0.35)">
		<g transform="">
			<rect x="0" y="0" class="st0" width="100" height="100"/>
		</g>
	</g>
	<g transform="translate(420,420) scale(0.35,0.35)">
		<g transform="">
			<rect x="0" y="0" class="st0" width="100" height="100"/>
		</g>
	</g>
	<g transform="translate(455,420) scale(0.35,0.35)">
		<g transform="">
			<rect x="0" y="0" class="st0" width="100" height="100"/>
		</g>
	</g>
	<g transform="translate(490,420) scale(0.35,0.35)">
		<g transform="">
			<rect x="0" y="0" class="st0" width="100" height="100"/>
		</g>
	</g>
	<g transform="translate(525,420) scale(0.35,0.35)">
		<g transform="">
			<rect x="0" y="0" class="st0" width="100" height="100"/>
		</g>
	</g>
	<g transform="translate(630,420) scale(0.35,0.35)">
		<g transform="">
			<rect x="0" y="0" class="st0" width="100" height="100"/>
		</g>
	</g>
	<g transform="translate(665,420) scale(0.35,0.35)">
		<g transform="">
			<rect x="0" y="0" class="st0" width="100" height="100"/>
		</g>
	</g>
	<g transform="translate(735,420) scale(0.35,0.35)">
		<g transform="">
			<rect x="0" y="0" class="st0" width="100" height="100"/>
		</g>
	</g>
	<g transform="translate(770,420) scale(0.35,0.35)">
		<g transform="">
			<rect x="0" y="0" class="st0" width="100" height="100"/>
		</g>
	</g>
	<g transform="translate(875,420) scale(0.35,0.35)">
		<g transform="">
			<rect x="0" y="0" class="st0" width="100" height="100"/>
		</g>
	</g>
	<g transform="translate(945,420) scale(0.35,0.35)">
		<g transform="">
			<rect x="0" y="0" class="st0" width="100" height="100"/>
		</g>
	</g>
	<g transform="translate(105,455) scale(0.35,0.35)">
		<g transform="">
			<rect x="0" y="0" class="st0" width="100" height="100"/>
		</g>
	</g>
	<g transform="translate(140,455) scale(0.35,0.35)">
		<g transform="">
			<rect x="0" y="0" class="st0" width="100" height="100"/>
		</g>
	</g>
	<g transform="translate(175,455) scale(0.35,0.35)">
		<g transform="">
			<rect x="0" y="0" class="st0" width="100" height="100"/>
		</g>
	</g>
	<g transform="translate(315,455) scale(0.35,0.35)">
		<g transform="">
			<rect x="0" y="0" class="st0" width="100" height="100"/>
		</g>
	</g>
	<g transform="translate(385,455) scale(0.35,0.35)">
		<g transform="">
			<rect x="0" y="0" class="st0" width="100" height="100"/>
		</g>
	</g>
	<g transform="translate(420,455) scale(0.35,0.35)">
		<g transform="">
			<rect x="0" y="0" class="st0" width="100" height="100"/>
		</g>
	</g>
	<g transform="translate(455,455) scale(0.35,0.35)">
		<g transform="">
			<rect x="0" y="0" class="st0" width="100" height="100"/>
		</g>
	</g>
	<g transform="translate(525,455) scale(0.35,0.35)">
		<g transform="">
			<rect x="0" y="0" class="st0" width="100" height="100"/>
		</g>
	</g>
	<g transform="translate(595,455) scale(0.35,0.35)">
		<g transform="">
			<rect x="0" y="0" class="st0" width="100" height="100"/>
		</g>
	</g>
	<g transform="translate(630,455) scale(0.35,0.35)">
		<g transform="">
			<rect x="0" y="0" class="st0" width="100" height="100"/>
		</g>
	</g>
	<g transform="translate(770,455) scale(0.35,0.35)">
		<g transform="">
			<rect x="0" y="0" class="st0" width="100" height="100"/>
		</g>
	</g>
	<g transform="translate(840,455) scale(0.35,0.35)">
		<g transform="">
			<rect x="0" y="0" class="st0" width="100" height="100"/>
		</g>
	</g>
	<g transform="translate(910,455) scale(0.35,0.35)">
		<g transform="">
			<rect x="0" y="0" class="st0" width="100" height="100"/>
		</g>
	</g>
	<g transform="translate(980,455) scale(0.35,0.35)">
		<g transform="">
			<rect x="0" y="0" class="st0" width="100" height="100"/>
		</g>
	</g>
	<g transform="translate(0,490) scale(0.35,0.35)">
		<g transform="">
			<rect x="0" y="0" class="st0" width="100" height="100"/>
		</g>
	</g>
	<g transform="translate(35,490) scale(0.35,0.35)">
		<g transform="">
			<rect x="0" y="0" class="st0" width="100" height="100"/>
		</g>
	</g>
	<g transform="translate(70,490) scale(0.35,0.35)">
		<g transform="">
			<rect x="0" y="0" class="st0" width="100" height="100"/>
		</g>
	</g>
	<g transform="translate(105,490) scale(0.35,0.35)">
		<g transform="">
			<rect x="0" y="0" class="st0" width="100" height="100"/>
		</g>
	</g>
	<g transform="translate(140,490) scale(0.35,0.35)">
		<g transform="">
			<rect x="0" y="0" class="st0" width="100" height="100"/>
		</g>
	</g>
	<g transform="translate(175,490) scale(0.35,0.35)">
		<g transform="">
			<rect x="0" y="0" class="st0" width="100" height="100"/>
		</g>
	</g>
	<g transform="translate(210,490) scale(0.35,0.35)">
		<g transform="">
			<rect x="0" y="0" class="st0" width="100" height="100"/>
		</g>
	</g>
	<g transform="translate(350,490) scale(0.35,0.35)">
		<g transform="">
			<rect x="0" y="0" class="st0" width="100" height="100"/>
		</g>
	</g>
	<g transform="translate(455,490) scale(0.35,0.35)">
		<g transform="">
			<rect x="0" y="0" class="st0" width="100" height="100"/>
		</g>
	</g>
	<g transform="translate(490,490) scale(0.35,0.35)">
		<g transform="">
			<rect x="0" y="0" class="st0" width="100" height="100"/>
		</g>
	</g>
	<g transform="translate(595,490) scale(0.35,0.35)">
		<g transform="">
			<rect x="0" y="0" class="st0" width="100" height="100"/>
		</g>
	</g>
	<g transform="translate(665,490) scale(0.35,0.35)">
		<g transform="">
			<rect x="0" y="0" class="st0" width="100" height="100"/>
		</g>
	</g>
	<g transform="translate(700,490) scale(0.35,0.35)">
		<g transform="">
			<rect x="0" y="0" class="st0" width="100" height="100"/>
		</g>
	</g>
	<g transform="translate(805,490) scale(0.35,0.35)">
		<g transform="">
			<rect x="0" y="0" class="st0" width="100" height="100"/>
		</g>
	</g>
	<g transform="translate(875,490) scale(0.35,0.35)">
		<g transform="">
			<rect x="0" y="0" class="st0" width="100" height="100"/>
		</g>
	</g>
	<g transform="translate(980,490) scale(0.35,0.35)">
		<g transform="">
			<rect x="0" y="0" class="st0" width="100" height="100"/>
		</g>
	</g>
	<g transform="translate(0,525) scale(0.35,0.35)">
		<g transform="">
			<rect x="0" y="0" class="st0" width="100" height="100"/>
		</g>
	</g>
	<g transform="translate(105,525) scale(0.35,0.35)">
		<g transform="">
			<rect x="0" y="0" class="st0" width="100" height="100"/>
		</g>
	</g>
	<g transform="translate(245,525) scale(0.35,0.35)">
		<g transform="">
			<rect x="0" y="0" class="st0" width="100" height="100"/>
		</g>
	</g>
	<g transform="translate(315,525) scale(0.35,0.35)">
		<g transform="">
			<rect x="0" y="0" class="st0" width="100" height="100"/>
		</g>
	</g>
	<g transform="translate(350,525) scale(0.35,0.35)">
		<g transform="">
			<rect x="0" y="0" class="st0" width="100" height="100"/>
		</g>
	</g>
	<g transform="translate(455,525) scale(0.35,0.35)">
		<g transform="">
			<rect x="0" y="0" class="st0" width="100" height="100"/>
		</g>
	</g>
	<g transform="translate(490,525) scale(0.35,0.35)">
		<g transform="">
			<rect x="0" y="0" class="st0" width="100" height="100"/>
		</g>
	</g>
	<g transform="translate(595,525) scale(0.35,0.35)">
		<g transform="">
			<rect x="0" y="0" class="st0" width="100" height="100"/>
		</g>
	</g>
	<g transform="translate(665,525) scale(0.35,0.35)">
		<g transform="">
			<rect x="0" y="0" class="st0" width="100" height="100"/>
		</g>
	</g>
	<g transform="translate(700,525) scale(0.35,0.35)">
		<g transform="">
			<rect x="0" y="0" class="st0" width="100" height="100"/>
		</g>
	</g>
	<g transform="translate(735,525) scale(0.35,0.35)">
		<g transform="">
			<rect x="0" y="0" class="st0" width="100" height="100"/>
		</g>
	</g>
	<g transform="translate(840,525) scale(0.35,0.35)">
		<g transform="">
			<rect x="0" y="0" class="st0" width="100" height="100"/>
		</g>
	</g>
	<g transform="translate(875,525) scale(0.35,0.35)">
		<g transform="">
			<rect x="0" y="0" class="st0" width="100" height="100"/>
		</g>
	</g>
	<g transform="translate(910,525) scale(0.35,0.35)">
		<g transform="">
			<rect x="0" y="0" class="st0" width="100" height="100"/>
		</g>
	</g>
	<g transform="translate(0,560) scale(0.35,0.35)">
		<g transform="">
			<rect x="0" y="0" class="st0" width="100" height="100"/>
		</g>
	</g>
	<g transform="translate(210,560) scale(0.35,0.35)">
		<g transform="">
			<rect x="0" y="0" class="st0" width="100" height="100"/>
		</g>
	</g>
	<g transform="translate(315,560) scale(0.35,0.35)">
		<g transform="">
			<rect x="0" y="0" class="st0" width="100" height="100"/>
		</g>
	</g>
	<g transform="translate(385,560) scale(0.35,0.35)">
		<g transform="">
			<rect x="0" y="0" class="st0" width="100" height="100"/>
		</g>
	</g>
	<g transform="translate(420,560) scale(0.35,0.35)">
		<g transform="">
			<rect x="0" y="0" class="st0" width="100" height="100"/>
		</g>
	</g>
	<g transform="translate(455,560) scale(0.35,0.35)">
		<g transform="">
			<rect x="0" y="0" class="st0" width="100" height="100"/>
		</g>
	</g>
	<g transform="translate(490,560) scale(0.35,0.35)">
		<g transform="">
			<rect x="0" y="0" class="st0" width="100" height="100"/>
		</g>
	</g>
	<g transform="translate(525,560) scale(0.35,0.35)">
		<g transform="">
			<rect x="0" y="0" class="st0" width="100" height="100"/>
		</g>
	</g>
	<g transform="translate(560,560) scale(0.35,0.35)">
		<g transform="">
			<rect x="0" y="0" class="st0" width="100" height="100"/>
		</g>
	</g>
	<g transform="translate(805,560) scale(0.35,0.35)">
		<g transform="">
			<rect x="0" y="0" class="st0" width="100" height="100"/>
		</g>
	</g>
	<g transform="translate(875,560) scale(0.35,0.35)">
		<g transform="">
			<rect x="0" y="0" class="st0" width="100" height="100"/>
		</g>
	</g>
	<g transform="translate(945,560) scale(0.35,0.35)">
		<g transform="">
			<rect x="0" y="0" class="st0" width="100" height="100"/>
		</g>
	</g>
	<g transform="translate(0,595) scale(0.35,0.35)">
		<g transform="">
			<rect x="0" y="0" class="st0" width="100" height="100"/>
		</g>
	</g>
	<g transform="translate(140,595) scale(0.35,0.35)">
		<g transform="">
			<rect x="0" y="0" class="st0" width="100" height="100"/>
		</g>
	</g>
	<g transform="translate(245,595) scale(0.35,0.35)">
		<g transform="">
			<rect x="0" y="0" class="st0" width="100" height="100"/>
		</g>
	</g>
	<g transform="translate(350,595) scale(0.35,0.35)">
		<g transform="">
			<rect x="0" y="0" class="st0" width="100" height="100"/>
		</g>
	</g>
	<g transform="translate(420,595) scale(0.35,0.35)">
		<g transform="">
			<rect x="0" y="0" class="st0" width="100" height="100"/>
		</g>
	</g>
	<g transform="translate(490,595) scale(0.35,0.35)">
		<g transform="">
			<rect x="0" y="0" class="st0" width="100" height="100"/>
		</g>
	</g>
	<g transform="translate(560,595) scale(0.35,0.35)">
		<g transform="">
			<rect x="0" y="0" class="st0" width="100" height="100"/>
		</g>
	</g>
	<g transform="translate(630,595) scale(0.35,0.35)">
		<g transform="">
			<rect x="0" y="0" class="st0" width="100" height="100"/>
		</g>
	</g>
	<g transform="translate(665,595) scale(0.35,0.35)">
		<g transform="">
			<rect x="0" y="0" class="st0" width="100" height="100"/>
		</g>
	</g>
	<g transform="translate(700,595) scale(0.35,0.35)">
		<g transform="">
			<rect x="0" y="0" class="st0" width="100" height="100"/>
		</g>
	</g>
	<g transform="translate(840,595) scale(0.35,0.35)">
		<g transform="">
			<rect x="0" y="0" class="st0" width="100" height="100"/>
		</g>
	</g>
	<g transform="translate(875,595) scale(0.35,0.35)">
		<g transform="">
			<rect x="0" y="0" class="st0" width="100" height="100"/>
		</g>
	</g>
	<g transform="translate(910,595) scale(0.35,0.35)">
		<g transform="">
			<rect x="0" y="0" class="st0" width="100" height="100"/>
		</g>
	</g>
	<g transform="translate(0,630) scale(0.35,0.35)">
		<g transform="">
			<rect x="0" y="0" class="st0" width="100" height="100"/>
		</g>
	</g>
	<g transform="translate(35,630) scale(0.35,0.35)">
		<g transform="">
			<rect x="0" y="0" class="st0" width="100" height="100"/>
		</g>
	</g>
	<g transform="translate(105,630) scale(0.35,0.35)">
		<g transform="">
			<rect x="0" y="0" class="st0" width="100" height="100"/>
		</g>
	</g>
	<g transform="translate(210,630) scale(0.35,0.35)">
		<g transform="">
			<rect x="0" y="0" class="st0" width="100" height="100"/>
		</g>
	</g>
	<g transform="translate(280,630) scale(0.35,0.35)">
		<g transform="">
			<rect x="0" y="0" class="st0" width="100" height="100"/>
		</g>
	</g>
	<g transform="translate(350,630) scale(0.35,0.35)">
		<g transform="">
			<rect x="0" y="0" class="st0" width="100" height="100"/>
		</g>
	</g>
	<g transform="translate(385,630) scale(0.35,0.35)">
		<g transform="">
			<rect x="0" y="0" class="st0" width="100" height="100"/>
		</g>
	</g>
	<g transform="translate(420,630) scale(0.35,0.35)">
		<g transform="">
			<rect x="0" y="0" class="st0" width="100" height="100"/>
		</g>
	</g>
	<g transform="translate(525,630) scale(0.35,0.35)">
		<g transform="">
			<rect x="0" y="0" class="st0" width="100" height="100"/>
		</g>
	</g>
	<g transform="translate(665,630) scale(0.35,0.35)">
		<g transform="">
			<rect x="0" y="0" class="st0" width="100" height="100"/>
		</g>
	</g>
	<g transform="translate(700,630) scale(0.35,0.35)">
		<g transform="">
			<rect x="0" y="0" class="st0" width="100" height="100"/>
		</g>
	</g>
	<g transform="translate(875,630) scale(0.35,0.35)">
		<g transform="">
			<rect x="0" y="0" class="st0" width="100" height="100"/>
		</g>
	</g>
	<g transform="translate(980,630) scale(0.35,0.35)">
		<g transform="">
			<rect x="0" y="0" class="st0" width="100" height="100"/>
		</g>
	</g>
	<g transform="translate(0,665) scale(0.35,0.35)">
		<g transform="">
			<rect x="0" y="0" class="st0" width="100" height="100"/>
		</g>
	</g>
	<g transform="translate(35,665) scale(0.35,0.35)">
		<g transform="">
			<rect x="0" y="0" class="st0" width="100" height="100"/>
		</g>
	</g>
	<g transform="translate(70,665) scale(0.35,0.35)">
		<g transform="">
			<rect x="0" y="0" class="st0" width="100" height="100"/>
		</g>
	</g>
	<g transform="translate(140,665) scale(0.35,0.35)">
		<g transform="">
			<rect x="0" y="0" class="st0" width="100" height="100"/>
		</g>
	</g>
	<g transform="translate(175,665) scale(0.35,0.35)">
		<g transform="">
			<rect x="0" y="0" class="st0" width="100" height="100"/>
		</g>
	</g>
	<g transform="translate(280,665) scale(0.35,0.35)">
		<g transform="">
			<rect x="0" y="0" class="st0" width="100" height="100"/>
		</g>
	</g>
	<g transform="translate(315,665) scale(0.35,0.35)">
		<g transform="">
			<rect x="0" y="0" class="st0" width="100" height="100"/>
		</g>
	</g>
	<g transform="translate(350,665) scale(0.35,0.35)">
		<g transform="">
			<rect x="0" y="0" class="st0" width="100" height="100"/>
		</g>
	</g>
	<g transform="translate(420,665) scale(0.35,0.35)">
		<g transform="">
			<rect x="0" y="0" class="st0" width="100" height="100"/>
		</g>
	</g>
	<g transform="translate(490,665) scale(0.35,0.35)">
		<g transform="">
			<rect x="0" y="0" class="st0" width="100" height="100"/>
		</g>
	</g>
	<g transform="translate(525,665) scale(0.35,0.35)">
		<g transform="">
			<rect x="0" y="0" class="st0" width="100" height="100"/>
		</g>
	</g>
	<g transform="translate(665,665) scale(0.35,0.35)">
		<g transform="">
			<rect x="0" y="0" class="st0" width="100" height="100"/>
		</g>
	</g>
	<g transform="translate(700,665) scale(0.35,0.35)">
		<g transform="">
			<rect x="0" y="0" class="st0" width="100" height="100"/>
		</g>
	</g>
	<g transform="translate(735,665) scale(0.35,0.35)">
		<g transform="">
			<rect x="0" y="0" class="st0" width="100" height="100"/>
		</g>
	</g>
	<g transform="translate(770,665) scale(0.35,0.35)">
		<g transform="">
			<rect x="0" y="0" class="st0" width="100" height="100"/>
		</g>
	</g>
	<g transform="translate(805,665) scale(0.35,0.35)">
		<g transform="">
			<rect x="0" y="0" class="st0" width="100" height="100"/>
		</g>
	</g>
	<g transform="translate(910,665) scale(0.35,0.35)">
		<g transform="">
			<rect x="0" y="0" class="st0" width="100" height="100"/>
		</g>
	</g>
	<g transform="translate(980,665) scale(0.35,0.35)">
		<g transform="">
			<rect x="0" y="0" class="st0" width="100" height="100"/>
		</g>
	</g>
	<g transform="translate(0,700) scale(0.35,0.35)">
		<g transform="">
			<rect x="0" y="0" class="st0" width="100" height="100"/>
		</g>
	</g>
	<g transform="translate(35,700) scale(0.35,0.35)">
		<g transform="">
			<rect x="0" y="0" class="st0" width="100" height="100"/>
		</g>
	</g>
	<g transform="translate(70,700) scale(0.35,0.35)">
		<g transform="">
			<rect x="0" y="0" class="st0" width="100" height="100"/>
		</g>
	</g>
	<g transform="translate(105,700) scale(0.35,0.35)">
		<g transform="">
			<rect x="0" y="0" class="st0" width="100" height="100"/>
		</g>
	</g>
	<g transform="translate(140,700) scale(0.35,0.35)">
		<g transform="">
			<rect x="0" y="0" class="st0" width="100" height="100"/>
		</g>
	</g>
	<g transform="translate(210,700) scale(0.35,0.35)">
		<g transform="">
			<rect x="0" y="0" class="st0" width="100" height="100"/>
		</g>
	</g>
	<g transform="translate(280,700) scale(0.35,0.35)">
		<g transform="">
			<rect x="0" y="0" class="st0" width="100" height="100"/>
		</g>
	</g>
	<g transform="translate(350,700) scale(0.35,0.35)">
		<g transform="">
			<rect x="0" y="0" class="st0" width="100" height="100"/>
		</g>
	</g>
	<g transform="translate(420,700) scale(0.35,0.35)">
		<g transform="">
			<rect x="0" y="0" class="st0" width="100" height="100"/>
		</g>
	</g>
	<g transform="translate(455,700) scale(0.35,0.35)">
		<g transform="">
			<rect x="0" y="0" class="st0" width="100" height="100"/>
		</g>
	</g>
	<g transform="translate(525,700) scale(0.35,0.35)">
		<g transform="">
			<rect x="0" y="0" class="st0" width="100" height="100"/>
		</g>
	</g>
	<g transform="translate(560,700) scale(0.35,0.35)">
		<g transform="">
			<rect x="0" y="0" class="st0" width="100" height="100"/>
		</g>
	</g>
	<g transform="translate(630,700) scale(0.35,0.35)">
		<g transform="">
			<rect x="0" y="0" class="st0" width="100" height="100"/>
		</g>
	</g>
	<g transform="translate(665,700) scale(0.35,0.35)">
		<g transform="">
			<rect x="0" y="0" class="st0" width="100" height="100"/>
		</g>
	</g>
	<g transform="translate(700,700) scale(0.35,0.35)">
		<g transform="">
			<rect x="0" y="0" class="st0" width="100" height="100"/>
		</g>
	</g>
	<g transform="translate(735,700) scale(0.35,0.35)">
		<g transform="">
			<rect x="0" y="0" class="st0" width="100" height="100"/>
		</g>
	</g>
	<g transform="translate(770,700) scale(0.35,0.35)">
		<g transform="">
			<rect x="0" y="0" class="st0" width="100" height="100"/>
		</g>
	</g>
	<g transform="translate(805,700) scale(0.35,0.35)">
		<g transform="">
			<rect x="0" y="0" class="st0" width="100" height="100"/>
		</g>
	</g>
	<g transform="translate(840,700) scale(0.35,0.35)">
		<g transform="">
			<rect x="0" y="0" class="st0" width="100" height="100"/>
		</g>
	</g>
	<g transform="translate(875,700) scale(0.35,0.35)">
		<g transform="">
			<rect x="0" y="0" class="st0" width="100" height="100"/>
		</g>
	</g>
	<g transform="translate(910,700) scale(0.35,0.35)">
		<g transform="">
			<rect x="0" y="0" class="st0" width="100" height="100"/>
		</g>
	</g>
	<g transform="translate(980,700) scale(0.35,0.35)">
		<g transform="">
			<rect x="0" y="0" class="st0" width="100" height="100"/>
		</g>
	</g>
	<g transform="translate(280,735) scale(0.35,0.35)">
		<g transform="">
			<rect x="0" y="0" class="st0" width="100" height="100"/>
		</g>
	</g>
	<g transform="translate(385,735) scale(0.35,0.35)">
		<g transform="">
			<rect x="0" y="0" class="st0" width="100" height="100"/>
		</g>
	</g>
	<g transform="translate(490,735) scale(0.35,0.35)">
		<g transform="">
			<rect x="0" y="0" class="st0" width="100" height="100"/>
		</g>
	</g>
	<g transform="translate(700,735) scale(0.35,0.35)">
		<g transform="">
			<rect x="0" y="0" class="st0" width="100" height="100"/>
		</g>
	</g>
	<g transform="translate(840,735) scale(0.35,0.35)">
		<g transform="">
			<rect x="0" y="0" class="st0" width="100" height="100"/>
		</g>
	</g>
	<g transform="translate(875,735) scale(0.35,0.35)">
		<g transform="">
			<rect x="0" y="0" class="st0" width="100" height="100"/>
		</g>
	</g>
	<g transform="translate(910,735) scale(0.35,0.35)">
		<g transform="">
			<rect x="0" y="0" class="st0" width="100" height="100"/>
		</g>
	</g>
	<g transform="translate(280,770) scale(0.35,0.35)">
		<g transform="">
			<rect x="0" y="0" class="st0" width="100" height="100"/>
		</g>
	</g>
	<g transform="translate(315,770) scale(0.35,0.35)">
		<g transform="">
			<rect x="0" y="0" class="st0" width="100" height="100"/>
		</g>
	</g>
	<g transform="translate(350,770) scale(0.35,0.35)">
		<g transform="">
			<rect x="0" y="0" class="st0" width="100" height="100"/>
		</g>
	</g>
	<g transform="translate(385,770) scale(0.35,0.35)">
		<g transform="">
			<rect x="0" y="0" class="st0" width="100" height="100"/>
		</g>
	</g>
	<g transform="translate(420,770) scale(0.35,0.35)">
		<g transform="">
			<rect x="0" y="0" class="st0" width="100" height="100"/>
		</g>
	</g>
	<g transform="translate(455,770) scale(0.35,0.35)">
		<g transform="">
			<rect x="0" y="0" class="st0" width="100" height="100"/>
		</g>
	</g>
	<g transform="translate(560,770) scale(0.35,0.35)">
		<g transform="">
			<rect x="0" y="0" class="st0" width="100" height="100"/>
		</g>
	</g>
	<g transform="translate(630,770) scale(0.35,0.35)">
		<g transform="">
			<rect x="0" y="0" class="st0" width="100" height="100"/>
		</g>
	</g>
	<g transform="translate(665,770) scale(0.35,0.35)">
		<g transform="">
			<rect x="0" y="0" class="st0" width="100" height="100"/>
		</g>
	</g>
	<g transform="translate(700,770) scale(0.35,0.35)">
		<g transform="">
			<rect x="0" y="0" class="st0" width="100" height="100"/>
		</g>
	</g>
	<g transform="translate(770,770) scale(0.35,0.35)">
		<g transform="">
			<rect x="0" y="0" class="st0" width="100" height="100"/>
		</g>
	</g>
	<g transform="translate(840,770) scale(0.35,0.35)">
		<g transform="">
			<rect x="0" y="0" class="st0" width="100" height="100"/>
		</g>
	</g>
	<g transform="translate(910,770) scale(0.35,0.35)">
		<g transform="">
			<rect x="0" y="0" class="st0" width="100" height="100"/>
		</g>
	</g>
	<g transform="translate(350,805) scale(0.35,0.35)">
		<g transform="">
			<rect x="0" y="0" class="st0" width="100" height="100"/>
		</g>
	</g>
	<g transform="translate(455,805) scale(0.35,0.35)">
		<g transform="">
			<rect x="0" y="0" class="st0" width="100" height="100"/>
		</g>
	</g>
	<g transform="translate(490,805) scale(0.35,0.35)">
		<g transform="">
			<rect x="0" y="0" class="st0" width="100" height="100"/>
		</g>
	</g>
	<g transform="translate(595,805) scale(0.35,0.35)">
		<g transform="">
			<rect x="0" y="0" class="st0" width="100" height="100"/>
		</g>
	</g>
	<g transform="translate(630,805) scale(0.35,0.35)">
		<g transform="">
			<rect x="0" y="0" class="st0" width="100" height="100"/>
		</g>
	</g>
	<g transform="translate(665,805) scale(0.35,0.35)">
		<g transform="">
			<rect x="0" y="0" class="st0" width="100" height="100"/>
		</g>
	</g>
	<g transform="translate(700,805) scale(0.35,0.35)">
		<g transform="">
			<rect x="0" y="0" class="st0" width="100" height="100"/>
		</g>
	</g>
	<g transform="translate(840,805) scale(0.35,0.35)">
		<g transform="">
			<rect x="0" y="0" class="st0" width="100" height="100"/>
		</g>
	</g>
	<g transform="translate(875,805) scale(0.35,0.35)">
		<g transform="">
			<rect x="0" y="0" class="st0" width="100" height="100"/>
		</g>
	</g>
	<g transform="translate(945,805) scale(0.35,0.35)">
		<g transform="">
			<rect x="0" y="0" class="st0" width="100" height="100"/>
		</g>
	</g>
	<g transform="translate(980,805) scale(0.35,0.35)">
		<g transform="">
			<rect x="0" y="0" class="st0" width="100" height="100"/>
		</g>
	</g>
	<g transform="translate(280,840) scale(0.35,0.35)">
		<g transform="">
			<rect x="0" y="0" class="st0" width="100" height="100"/>
		</g>
	</g>
	<g transform="translate(315,840) scale(0.35,0.35)">
		<g transform="">
			<rect x="0" y="0" class="st0" width="100" height="100"/>
		</g>
	</g>
	<g transform="translate(525,840) scale(0.35,0.35)">
		<g transform="">
			<rect x="0" y="0" class="st0" width="100" height="100"/>
		</g>
	</g>
	<g transform="translate(560,840) scale(0.35,0.35)">
		<g transform="">
			<rect x="0" y="0" class="st0" width="100" height="100"/>
		</g>
	</g>
	<g transform="translate(595,840) scale(0.35,0.35)">
		<g transform="">
			<rect x="0" y="0" class="st0" width="100" height="100"/>
		</g>
	</g>
	<g transform="translate(665,840) scale(0.35,0.35)">
		<g transform="">
			<rect x="0" y="0" class="st0" width="100" height="100"/>
		</g>
	</g>
	<g transform="translate(700,840) scale(0.35,0.35)">
		<g transform="">
			<rect x="0" y="0" class="st0" width="100" height="100"/>
		</g>
	</g>
	<g transform="translate(735,840) scale(0.35,0.35)">
		<g transform="">
			<rect x="0" y="0" class="st0" width="100" height="100"/>
		</g>
	</g>
	<g transform="translate(770,840) scale(0.35,0.35)">
		<g transform="">
			<rect x="0" y="0" class="st0" width="100" height="100"/>
		</g>
	</g>
	<g transform="translate(805,840) scale(0.35,0.35)">
		<g transform="">
			<rect x="0" y="0" class="st0" width="100" height="100"/>
		</g>
	</g>
	<g transform="translate(840,840) scale(0.35,0.35)">
		<g transform="">
			<rect x="0" y="0" class="st0" width="100" height="100"/>
		</g>
	</g>
	<g transform="translate(280,875) scale(0.35,0.35)">
		<g transform="">
			<rect x="0" y="0" class="st0" width="100" height="100"/>
		</g>
	</g>
	<g transform="translate(420,875) scale(0.35,0.35)">
		<g transform="">
			<rect x="0" y="0" class="st0" width="100" height="100"/>
		</g>
	</g>
	<g transform="translate(490,875) scale(0.35,0.35)">
		<g transform="">
			<rect x="0" y="0" class="st0" width="100" height="100"/>
		</g>
	</g>
	<g transform="translate(525,875) scale(0.35,0.35)">
		<g transform="">
			<rect x="0" y="0" class="st0" width="100" height="100"/>
		</g>
	</g>
	<g transform="translate(595,875) scale(0.35,0.35)">
		<g transform="">
			<rect x="0" y="0" class="st0" width="100" height="100"/>
		</g>
	</g>
	<g transform="translate(630,875) scale(0.35,0.35)">
		<g transform="">
			<rect x="0" y="0" class="st0" width="100" height="100"/>
		</g>
	</g>
	<g transform="translate(805,875) scale(0.35,0.35)">
		<g transform="">
			<rect x="0" y="0" class="st0" width="100" height="100"/>
		</g>
	</g>
	<g transform="translate(875,875) scale(0.35,0.35)">
		<g transform="">
			<rect x="0" y="0" class="st0" width="100" height="100"/>
		</g>
	</g>
	<g transform="translate(910,875) scale(0.35,0.35)">
		<g transform="">
			<rect x="0" y="0" class="st0" width="100" height="100"/>
		</g>
	</g>
	<g transform="translate(945,875) scale(0.35,0.35)">
		<g transform="">
			<rect x="0" y="0" class="st0" width="100" height="100"/>
		</g>
	</g>
	<g transform="translate(350,910) scale(0.35,0.35)">
		<g transform="">
			<rect x="0" y="0" class="st0" width="100" height="100"/>
		</g>
	</g>
	<g transform="translate(420,910) scale(0.35,0.35)">
		<g transform="">
			<rect x="0" y="0" class="st0" width="100" height="100"/>
		</g>
	</g>
	<g transform="translate(455,910) scale(0.35,0.35)">
		<g transform="">
			<rect x="0" y="0" class="st0" width="100" height="100"/>
		</g>
	</g>
	<g transform="translate(490,910) scale(0.35,0.35)">
		<g transform="">
			<rect x="0" y="0" class="st0" width="100" height="100"/>
		</g>
	</g>
	<g transform="translate(525,910) scale(0.35,0.35)">
		<g transform="">
			<rect x="0" y="0" class="st0" width="100" height="100"/>
		</g>
	</g>
	<g transform="translate(595,910) scale(0.35,0.35)">
		<g transform="">
			<rect x="0" y="0" class="st0" width="100" height="100"/>
		</g>
	</g>
	<g transform="translate(630,910) scale(0.35,0.35)">
		<g transform="">
			<rect x="0" y="0" class="st0" width="100" height="100"/>
		</g>
	</g>
	<g transform="translate(700,910) scale(0.35,0.35)">
		<g transform="">
			<rect x="0" y="0" class="st0" width="100" height="100"/>
		</g>
	</g>
	<g transform="translate(735,910) scale(0.35,0.35)">
		<g transform="">
			<rect x="0" y="0" class="st0" width="100" height="100"/>
		</g>
	</g>
	<g transform="translate(805,910) scale(0.35,0.35)">
		<g transform="">
			<rect x="0" y="0" class="st0" width="100" height="100"/>
		</g>
	</g>
	<g transform="translate(840,910) scale(0.35,0.35)">
		<g transform="">
			<rect x="0" y="0" class="st0" width="100" height="100"/>
		</g>
	</g>
	<g transform="translate(910,910) scale(0.35,0.35)">
		<g transform="">
			<rect x="0" y="0" class="st0" width="100" height="100"/>
		</g>
	</g>
	<g transform="translate(945,910) scale(0.35,0.35)">
		<g transform="">
			<rect x="0" y="0" class="st0" width="100" height="100"/>
		</g>
	</g>
	<g transform="translate(980,910) scale(0.35,0.35)">
		<g transform="">
			<rect x="0" y="0" class="st0" width="100" height="100"/>
		</g>
	</g>
	<g transform="translate(350,945) scale(0.35,0.35)">
		<g transform="">
			<rect x="0" y="0" class="st0" width="100" height="100"/>
		</g>
	</g>
	<g transform="translate(560,945) scale(0.35,0.35)">
		<g transform="">
			<rect x="0" y="0" class="st0" width="100" height="100"/>
		</g>
	</g>
	<g transform="translate(630,945) scale(0.35,0.35)">
		<g transform="">
			<rect x="0" y="0" class="st0" width="100" height="100"/>
		</g>
	</g>
	<g transform="translate(665,945) scale(0.35,0.35)">
		<g transform="">
			<rect x="0" y="0" class="st0" width="100" height="100"/>
		</g>
	</g>
	<g transform="translate(770,945) scale(0.35,0.35)">
		<g transform="">
			<rect x="0" y="0" class="st0" width="100" height="100"/>
		</g>
	</g>
	<g transform="translate(840,945) scale(0.35,0.35)">
		<g transform="">
			<rect x="0" y="0" class="st0" width="100" height="100"/>
		</g>
	</g>
	<g transform="translate(875,945) scale(0.35,0.35)">
		<g transform="">
			<rect x="0" y="0" class="st0" width="100" height="100"/>
		</g>
	</g>
	<g transform="translate(910,945) scale(0.35,0.35)">
		<g transform="">
			<rect x="0" y="0" class="st0" width="100" height="100"/>
		</g>
	</g>
	<g transform="translate(980,945) scale(0.35,0.35)">
		<g transform="">
			<rect x="0" y="0" class="st0" width="100" height="100"/>
		</g>
	</g>
	<g transform="translate(315,980) scale(0.35,0.35)">
		<g transform="">
			<rect x="0" y="0" class="st0" width="100" height="100"/>
		</g>
	</g>
	<g transform="translate(420,980) scale(0.35,0.35)">
		<g transform="">
			<rect x="0" y="0" class="st0" width="100" height="100"/>
		</g>
	</g>
	<g transform="translate(455,980) scale(0.35,0.35)">
		<g transform="">
			<rect x="0" y="0" class="st0" width="100" height="100"/>
		</g>
	</g>
	<g transform="translate(525,980) scale(0.35,0.35)">
		<g transform="">
			<rect x="0" y="0" class="st0" width="100" height="100"/>
		</g>
	</g>
	<g transform="translate(595,980) scale(0.35,0.35)">
		<g transform="">
			<rect x="0" y="0" class="st0" width="100" height="100"/>
		</g>
	</g>
	<g transform="translate(630,980) scale(0.35,0.35)">
		<g transform="">
			<rect x="0" y="0" class="st0" width="100" height="100"/>
		</g>
	</g>
	<g transform="translate(665,980) scale(0.35,0.35)">
		<g transform="">
			<rect x="0" y="0" class="st0" width="100" height="100"/>
		</g>
	</g>
	<g transform="translate(700,980) scale(0.35,0.35)">
		<g transform="">
			<rect x="0" y="0" class="st0" width="100" height="100"/>
		</g>
	</g>
	<g transform="translate(805,980) scale(0.35,0.35)">
		<g transform="">
			<rect x="0" y="0" class="st0" width="100" height="100"/>
		</g>
	</g>
	<g transform="translate(840,980) scale(0.35,0.35)">
		<g transform="">
			<rect x="0" y="0" class="st0" width="100" height="100"/>
		</g>
	</g>
	<g transform="translate(0,0) scale(2.45, 2.45)">
		<g transform="">
			<g>
				<path class="st1" d="M65.9,15H34.1c-4.1,0-7.9,1.3-11,3.4c-2.4,1.7-4.4,3.9-5.8,6.4c-1.5,2.7-2.3,5.7-2.3,8.9v32.5
					C15,76.6,23.6,85,34.1,85H50h15.9C76.4,85,85,76.6,85,66.2V33.8C85,23.4,76.4,15,65.9,15z"/>
				<path class="st0" d="M65.9,0H34.1l0,0C18.7,0,5.6,10.2,1.4,24.2c-0.4,1.4-0.8,2.9-1,4.4C0.1,30.3,0,32,0,33.8v32.5
					C0,84.8,15.3,100,34.1,100H50h15.9c18.8,0,34.1-15.1,34.1-33.8V33.8C100,15.1,84.7,0,65.9,0z M85,66.2C85,76.6,76.4,85,65.9,85
					H50H34.1C23.6,85,15,76.6,15,66.2V33.8c0-3.2,0.8-6.3,2.3-8.9c1.4-2.6,3.4-4.8,5.8-6.4c3.1-2.1,6.9-3.4,11-3.4h31.7
					C76.4,15,85,23.4,85,33.8V66.2z"/>
			</g>
		</g>
	</g>
	<g transform="translate(770,0) scale(2.45, 2.45)">
		<g transform="">
			<g>
				<path class="st1" d="M65.9,15H34.1c-4.1,0-7.9,1.3-11,3.4c-2.4,1.7-4.4,3.9-5.8,6.4c-1.5,2.7-2.3,5.7-2.3,8.9v32.5
					C15,76.6,23.6,85,34.1,85H50h15.9C76.4,85,85,76.6,85,66.2V33.8C85,23.4,76.4,15,65.9,15z"/>
				<path class="st0" d="M65.9,0H34.1l0,0C18.7,0,5.6,10.2,1.4,24.2c-0.4,1.4-0.8,2.9-1,4.4C0.1,30.3,0,32,0,33.8v32.5
					C0,84.8,15.3,100,34.1,100H50h15.9c18.8,0,34.1-15.1,34.1-33.8V33.8C100,15.1,84.7,0,65.9,0z M85,66.2C85,76.6,76.4,85,65.9,85
					H50H34.1C23.6,85,15,76.6,15,66.2V33.8c0-3.2,0.8-6.3,2.3-8.9c1.4-2.6,3.4-4.8,5.8-6.4c3.1-2.1,6.9-3.4,11-3.4h31.7
					C76.4,15,85,23.4,85,33.8V66.2z"/>
			</g>
		</g>
	</g>
	<g transform="translate(0,770) scale(2.45, 2.45)">
		<g transform="">
			<g>
				<path class="st1" d="M65.9,15H34.1c-4.1,0-7.9,1.3-11,3.4c-2.4,1.7-4.4,3.9-5.8,6.4c-1.5,2.7-2.3,5.7-2.3,8.9v32.5
					C15,76.6,23.6,85,34.1,85H50h15.9C76.4,85,85,76.6,85,66.2V33.8C85,23.4,76.4,15,65.9,15z"/>
				<path class="st0" d="M65.9,0H34.1l0,0C18.7,0,5.6,10.2,1.4,24.2c-0.4,1.4-0.8,2.9-1,4.4C0.1,30.3,0,32,0,33.8v32.5
					C0,84.8,15.3,100,34.1,100H50h15.9c18.8,0,34.1-15.1,34.1-33.8V33.8C100,15.1,84.7,0,65.9,0z M85,66.2C85,76.6,76.4,85,65.9,85
					H50H34.1C23.6,85,15,76.6,15,66.2V33.8c0-3.2,0.8-6.3,2.3-8.9c1.4-2.6,3.4-4.8,5.8-6.4c3.1-2.1,6.9-3.4,11-3.4h31.7
					C76.4,15,85,23.4,85,33.8V66.2z"/>
			</g>
		</g>
	</g>
	<g transform="translate(70,70) scale(1.05, 1.05)">
		<g transform="">
			<g>
				<g id="XMLID_1_">
					<g>
						<path class="st0" d="M27.4,100C12.3,100,0,88,0,73.2V26.8c0-4.6,1.2-9,3.3-12.8c2-3.7,4.9-6.8,8.4-9.2c4.4-3,9.8-4.8,15.6-4.8
							h45.3C87.7,0,100,12,100,26.8v46.4C100,88,87.7,100,72.7,100H50H27.4L27.4,100z"/>
					</g>
				</g>
			</g>
		</g>
	</g>
	<g transform="translate(840,70) scale(1.05, 1.05)">
		<g transform="">
			<g>
				<g>
					<g>
						<path class="st0" d="M27.4,100C12.3,100,0,88,0,73.2V26.8c0-4.6,1.2-9,3.3-12.8c2-3.7,4.9-6.8,8.4-9.2c4.4-3,9.8-4.8,15.6-4.8
							h45.3C87.7,0,100,12,100,26.8v46.4C100,88,87.7,100,72.7,100H50H27.4L27.4,100z"/>
					</g>
				</g>
			</g>
		</g>
	</g>
	<g transform="translate(70,840) scale(1.05, 1.05)">
		<g transform="">
			<g>
				<g>
					<g>
						<path class="st0" d="M27.4,100C12.3,100,0,88,0,73.2V26.8c0-4.6,1.2-9,3.3-12.8c2-3.7,4.9-6.8,8.4-9.2c4.4-3,9.8-4.8,15.6-4.8
							h45.3C87.7,0,100,12,100,26.8v46.4C100,88,87.7,100,72.7,100H50H27.4L27.4,100z"/>
					</g>
				</g>
			</g>
		</g>
	</g>
</g>
<rect x="419.6" y="420" width="315" height="315"/>
<g>
	<path class="st0" d="M679.8,520.8c-1.6-0.5-3-1.6-4.1-3.1c-1-1.3-1.5-3.1-1.5-4.9c0-1,0.1-1.6,0.2-2.1c0.1-0.5,0.2-0.9,0.2-0.9
		c3.4-6.1,2.4-13.8-2.6-19.1c-5.4-5.6-12.1-10.3-18.6-13.3l-2.4-1.3l-1-0.4c-0.6-0.3-1.3-0.5-1.7-0.6l-2.2-0.8l-1.9-0.6l-2.1-0.7
		l-2.4-0.6l-0.9-0.2l-1.6-0.3l-1.3-0.3l-1.6-0.3c-0.5-0.1-1-0.1-1.6-0.2L631,471l-2.6-0.2c-1.2-0.1-2.5-0.1-3.7-0.1
		c-1.8,0-3.7,0.1-5.6,0.3c-4.8-4.1-10.1-7.5-15.7-10c-8.7-3.9-17.8-5.9-27.2-5.9c-9.3,0-18.4,1.9-27,5.7c-5.7,2.6-11,5.9-15.8,10.1
		c-1.1-0.1-2.1-0.1-3.1-0.1c-17.6,0-34.3,6.9-46.8,19.4s-19.3,29.1-19.3,46.7s6.9,34.2,19.3,46.6c5.9,6,13,10.8,20.7,14.2v38.6h-5.3
		c-9,0-16.3,7.3-16.3,16.3s7.3,16.3,16.3,16.3h24.4c-0.9,2.1-1.4,4.4-1.3,6.8c0.1,4.4,2,8.4,5.1,11.3c6.8,6.4,14.6,11.4,23.2,14.8
		c8.7,3.4,17.8,5.1,27,5.1c9.3,0,18.4-1.7,27.1-5.2c8.7-3.5,16.5-8.5,23.2-14.8c3.2-3,5-7.1,5.1-11.4c0-2.3-0.4-4.6-1.3-6.6H656
		c9,0,16.3-7.3,16.3-16.3s-7.3-16.3-16.3-16.3h-5.3v-38.4l1-0.2l0.4-0.4l0.2-0.1l0.4-0.4c1.1-0.5,2.2-1.1,3.1-1.6l1.1-0.6
		c0.9-0.5,1.9-1,3-1.7l1.5-1c0,0,1-0.7,1.2-0.9c0.6-0.4,1.1-0.8,1.6-1.2l0.3-0.3c0,0,2.6-2,3-2.3c0.6-0.5,1.3-1.1,1.2-1.1l1.3-1.1
		l1.3-1.3c0.8-0.7,1.4-1.4,1.7-1.8c0.3-0.3,0.7-0.7,1-1.1l1.6-1.9l2.4-3.1c0.4-0.5,0.7-1,1-1.4l1.3-1.7l0.2-0.6
		c0.5-0.7,0.9-1.4,1.2-2c0.3-0.5,0.6-1,0.8-1.5c0.6-1,1.1-2,1.7-3.4l0.5-1l1.5-3.5c3-7.7,4.5-15.7,4.5-24.1
		C691,529.5,686.6,523.2,679.8,520.8z"/>
	<g>
		<path d="M514.4,590.5v55.7H499c-3.5,0-6.2,2.8-6.2,6.2s2.8,6.2,6.2,6.2h55.3c2.6,2.8,5.7,5.1,9.1,6.8c4.3,2.2,9.1,3.3,14.2,3.3
			c5.1,0,9.9-1.2,14.2-3.3c3.4-1.7,6.5-4,9.1-6.8H656c3.5,0,6.2-2.8,6.2-6.2s-2.8-6.2-6.2-6.2h-15.4v-55.8c0.3-0.1,0.8-0.2,1.1-0.3
			c0.2-0.1,0.3-0.1,0.6-0.1c0.1,0,0.1,0,0.2-0.1c0.1,0,0.2-0.1,0.3-0.1c1-0.3,2-0.7,3-1.1c0.3-0.1,0.5-0.2,0.8-0.3
			c0.1-0.1,0.2-0.1,0.3-0.1c1.5-0.6,3-1.4,4.4-2.2c0.1-0.1,0.3-0.2,0.5-0.3c0.9-0.5,1.8-1,2.7-1.5c0.2-0.1,0.5-0.3,0.7-0.5
			c0.1-0.1,0.3-0.2,0.5-0.3c0.1-0.1,0.3-0.2,0.5-0.3s0.3-0.2,0.3-0.3c0.5-0.3,1-0.6,1.4-1c0.4-0.3,0.8-0.6,1.2-0.9
			c0.7-0.6,1.5-1.1,2.1-1.7c0.4-0.3,0.8-0.7,1.2-1.1c0.4-0.3,0.8-0.8,1.2-1.1l0.3-0.3c0.1-0.1,0.1-0.1,0.2-0.2
			c0.7-0.6,1.3-1.3,1.9-2c0.3-0.3,0.6-0.6,0.8-0.9c0.4-0.5,0.8-1,1.2-1.5c0.2-0.3,0.4-0.6,0.6-0.8c0.2-0.3,0.4-0.6,0.6-0.8
			c0.3-0.4,0.6-0.8,0.9-1.1c0.3-0.3,0.5-0.8,0.8-1.1c0.1-0.2,0.3-0.3,0.3-0.6c0.1-0.1,0.1-0.2,0.2-0.3c0.1-0.1,0.1-0.2,0.1-0.3
			c0.5-0.8,1-1.5,1.4-2.2c0.2-0.3,0.4-0.7,0.6-1c0.5-0.8,0.9-1.7,1.3-2.6c0.1-0.3,0.3-0.6,0.4-1c0.4-0.9,0.8-1.8,1.2-2.8
			c0.1-0.2,0.1-0.4,0.2-0.6c2.4-6.2,3.8-13.1,3.8-20.2v-0.5c0.1-2.6-1.5-5.1-4.2-6c-3.7-1.2-6.8-3.7-9-6.8c-2.2-3-3.4-6.7-3.4-10.8
			c0-1.5,0.1-2.9,0.4-4.2c0.3-1.3,0.7-2.5,1.2-3.7c1.2-2.3,0.9-5.2-1-7.2c-4.6-4.8-10.3-8.7-16.4-11.6c-0.2-0.1-0.3-0.2-0.6-0.3
			c-0.3-0.1-0.6-0.3-0.9-0.4c-0.2-0.1-0.3-0.2-0.5-0.3c-0.3-0.1-0.6-0.3-1-0.3c-0.3-0.1-0.5-0.2-0.8-0.3c-0.6-0.2-1.2-0.5-1.9-0.7
			c-0.3-0.1-0.6-0.2-1-0.3c-0.3-0.1-0.6-0.2-1-0.3c-0.1,0-0.1-0.1-0.1-0.1c-0.2-0.1-0.5-0.1-0.7-0.2c-0.3-0.1-0.6-0.2-1-0.3
			c-0.6-0.1-1.1-0.3-1.7-0.4c-0.3-0.1-0.6-0.1-0.8-0.2h-0.1c-0.1,0-0.1,0-0.1,0c-0.8-0.1-1.6-0.3-2.4-0.5c-0.1,0-0.3-0.1-0.4-0.1
			c-0.8-0.1-1.7-0.3-2.5-0.3c-0.1,0-0.3-0.1-0.4-0.1c-0.6-0.1-1.1-0.1-1.7-0.1c-0.1,0-0.3,0-0.4,0s-0.3,0-0.4,0s-0.3,0-0.5-0.1
			c-1-0.1-2-0.1-3-0.1c-3.1,0-6,0.3-9,0.8c-4.7-4.7-10.3-8.7-16.4-11.4c-7.1-3.2-14.9-5-23.1-5c-8.1,0-15.8,1.7-22.8,4.9
			c-6.2,2.8-11.7,6.7-16.4,11.3c-0.6-0.1-1-0.1-1.6-0.2c-1.8-0.1-3.5-0.3-5-0.3h-0.1c-15.5,0-29.4,6.2-39.6,16.4
			c-10.1,10.1-16.4,24.1-16.4,39.6c0,15.4,6.2,29.4,16.4,39.6C497.2,582.9,505.3,587.8,514.4,590.5z M597.8,646.3
			c-0.3,0-0.6,0.1-0.8,0.1l0,0c-0.4,0.1-0.8,0.1-1.1,0.3l0,0c-0.3,0.1-0.7,0.3-1,0.5h-0.1c-0.3,0.2-0.6,0.4-0.9,0.7c0,0,0,0-0.1,0.1
			c-0.3,0.3-0.6,0.6-0.9,1c-1.8,2.4-4.1,4.3-6.8,5.6c-2.6,1.2-5.5,2-8.6,2s-6-0.7-8.6-2s-5-3.3-6.7-5.6c-0.3-0.3-0.6-0.7-0.9-1
			c0,0-0.1,0-0.1-0.1c-0.3-0.3-0.6-0.5-0.9-0.7c0,0-0.1,0-0.1-0.1c-0.3-0.2-0.7-0.3-1-0.5c0,0,0,0-0.1,0c-0.3-0.1-0.8-0.2-1.1-0.3
			l0,0c-0.3-0.1-0.6-0.1-0.8-0.1h-30.3V618c6.9-1.8,14.3-3.3,22-4.3c0.2,0,0.4-0.1,0.6-0.1c-1.3,1.5-2.2,3.3-2.2,5.4
			c0,2.2,0.9,4.2,2.4,5.7s3.5,2.4,5.7,2.4s4.2-0.9,5.7-2.4s2.4-3.5,2.4-5.7s-0.9-4.2-2.4-5.7l-0.1-0.1c-0.3-0.3-0.6-0.6-1-0.8
			c5.6-0.4,11.4-0.7,17.4-0.7s11.8,0.3,17.4,0.7c-0.3,0.3-0.7,0.6-1,0.8c-1.5,1.5-2.4,3.5-2.4,5.7s0.9,4.2,2.4,5.7s3.5,2.4,5.7,2.4
			s4.2-0.9,5.7-2.4s2.4-3.5,2.4-5.7c0-2.1-0.8-4-2.2-5.4c0.2,0,0.4,0.1,0.6,0.1c7.7,1,15.1,2.5,22,4.3v28.2h-30.2V646.3z M499.5,506
			c7.8-7.8,18.7-12.8,30.8-12.8c1.5,0,2.8,0.1,3.9,0.1c1.3,0.1,2.6,0.3,3.9,0.6l0,0c0.4,0.1,0.8,0.1,1.2,0.1h0.1
			c1.5-0.1,3.1-0.6,4.2-1.8l0.1-0.1c0.1-0.1,0.1-0.1,0.2-0.1c4.1-4.5,9.1-8.2,14.7-10.7c5.4-2.4,11.4-3.7,17.7-3.7
			c6.5,0,12.5,1.4,18,3.8c2.7,1.2,5.3,2.8,7.6,4.5c-2.2,1-4.2,2.1-6.2,3.3c-8.8,5.3-16,13-20.7,22.2c-1.1,2.2-2.2,4.6-3.1,7.1
			c-0.9,2.5-1.6,5-2.1,7.5c-0.6,3.3,1.5,6.6,4.9,7.2s6.7-1.5,7.3-4.9c0.4-2.1,1-4,1.6-5.8s1.5-3.7,2.4-5.6
			c3.7-7.1,9.3-13.2,16.1-17.3c6.6-4,14.3-6.3,22.6-6.3c1.5,0,2.8,0.1,4.3,0.2c0.2,0,0.4,0.1,0.7,0.1c0.3,0.1,0.7,0.1,1.1,0.1
			c1,0.1,2,0.3,3.1,0.5l0,0c0.4,0.1,0.8,0.2,1.2,0.3c1,0.3,2.1,0.5,3.1,0.8c0.6,0.2,1.2,0.4,1.7,0.6c0.8,0.3,1.6,0.6,2.4,0.9
			c4,1.7,7.6,4,10.9,6.9c-0.2,0.8-0.4,1.5-0.6,2.3c-0.5,2.3-0.8,4.6-0.8,6.9c0,6.6,2.1,12.8,5.7,17.8c2.8,4,6.5,7.1,10.8,9.4
			c-0.2,3.1-0.8,6-1.6,9c0,0.1,0,0.1,0,0.1c-0.3,0.9-0.6,1.7-0.8,2.6c0,0.1-0.1,0.2-0.1,0.3c-0.3,0.8-0.6,1.6-1,2.4
			c-0.1,0.1-0.1,0.3-0.2,0.4c-0.3,0.8-0.7,1.5-1,2.2c-0.1,0.2-0.2,0.4-0.3,0.6c-0.3,0.6-0.7,1.3-1.1,1.9c-0.1,0.2-0.3,0.5-0.4,0.7
			c-0.2,0.3-0.5,0.8-0.8,1.1c-0.6,0.8-1.1,1.5-1.7,2.3c-0.3,0.3-0.6,0.7-0.8,1c-0.8,0.9-1.5,1.8-2.4,2.6c-0.1,0.1-0.3,0.3-0.4,0.4
			c-0.1,0.1-0.1,0.1-0.2,0.2c-0.8,0.8-1.6,1.5-2.5,2.3l0,0c-0.3,0.3-0.8,0.6-1.2,1c-0.6,0.5-1.3,1-1.9,1.5c-0.3,0.2-0.6,0.4-0.9,0.6
			c-0.1,0.1-0.3,0.2-0.5,0.3c-0.7,0.4-1.4,0.8-2.1,1.2c-0.1,0.1-0.1,0.1-0.2,0.1c-0.3,0.2-0.6,0.3-1,0.6c-1,0.6-2.2,1-3.2,1.5
			c-0.3,0.1-0.8,0.3-1.1,0.4c-0.8,0.3-1.7,0.6-2.6,0.9c-0.4,0.1-0.8,0.3-1.2,0.3c-1.2,0.3-2.5,0.7-3.7,0.9c-2.8,0.6-4.9,2.9-5.1,5.9
			c0,0.1,0,0.1,0,0.1l0,0v0.1V605c-6.5-1.5-13.3-2.8-20.3-3.8c-9.8-1.3-19.9-2-30.3-2s-20.5,0.7-30.3,2c-7.1,1-13.9,2.2-20.3,3.8
			v-12.6c1.1,0.1,2.3,0.1,3.4,0.1c3.4,0,6.2-2.8,6.2-6.2s-2.8-6.2-6.2-6.2c-12,0-22.9-4.9-30.8-12.8c-7.8-7.9-12.8-18.8-12.8-30.9
			C486.7,524.8,491.6,513.9,499.5,506z"/>
		<path d="M600.7,692.2c7.5-3,14.3-7.4,20-12.8c2.5-2.4,2.6-6.2,0.2-8.7c-2.4-2.4-6.3-2.6-8.8-0.2c-4.6,4.4-10.1,7.8-16.1,10.3
			c-5.8,2.3-12.1,3.5-18.7,3.5c-6.6,0-12.9-1.2-18.7-3.5c-6-2.4-11.4-5.9-16.1-10.3c-2.5-2.4-6.4-2.2-8.7,0.2
			c-2.4,2.4-2.3,6.4,0.2,8.7c5.8,5.4,12.5,9.8,20,12.8c7.2,2.8,15.1,4.4,23.3,4.4C585.7,696.6,593.5,695,600.7,692.2z"/>
		<path d="M620.2,526.4c2.2,2.7,6,3.1,8.7,1c2.7-2.2,3.1-6,1-8.7l-3.6-4.5c-2.2-2.7-6-3.1-8.7-1c-2.7,2.2-3.1,6-1,8.7L620.2,526.4z"
			/>
		<path d="M601.1,549.7l4.9,3c2.9,1.8,6.7,0.9,8.5-2s0.9-6.7-2-8.5l-4.9-3.1c-2.9-1.8-6.7-0.9-8.5,2
			C597.3,544.1,598.2,547.9,601.1,549.7z"/>
		<path d="M635.9,556.1c2.8,2,6.7,1.5,8.7-1.3l3.4-4.6c2-2.8,1.5-6.7-1.3-8.7s-6.7-1.5-8.7,1.3l-3.4,4.6
			C632.5,550.2,633.1,554,635.9,556.1z"/>
	</g>
</g>
</svg>
