<svg xmlns="http://www.w3.org/2000/svg" width="43.95" height="48" viewBox="0 0 43.95 48">
  <g id="shipping_icon" data-name="shipping icon" transform="translate(-219.516 -1584.037)">
    <path id="Subtraction_6" data-name="Subtraction 6" d="M33.359,24.01H6.041V4.622A4.6,4.6,0,0,0,4.715,1.381,4.6,4.6,0,0,0,1.5,0H26.117a7.25,7.25,0,0,1,7.242,7.241V24.009Z" transform="translate(229.106 1596.868)" fill="none" stroke="#fff" stroke-width="2"/>
    <path id="Rectangle_4198" data-name="Rectangle 4198" d="M4.624,0h5.382a4.624,4.624,0,0,1,4.624,4.624V24.012a0,0,0,0,1,0,0H0a0,0,0,0,1,0,0V4.624A4.624,4.624,0,0,1,4.624,0Z" transform="translate(220.515 1596.867)" fill="none" stroke="#fff" stroke-linecap="round" stroke-linejoin="round" stroke-width="2"/>
    <path id="Path_3746" data-name="Path 3746" d="M232.455,1616.527h27.319v-16.77a7.241,7.241,0,0,0-7.242-7.242H225.14" transform="translate(2.691 4.352)" fill="none" stroke="#fff" stroke-linecap="round" stroke-linejoin="round" stroke-width="2"/>
    <path id="Path_3747" data-name="Path 3747" d="M234.9,1604.8v-19.759h8.914v5.692H234.9" transform="translate(8.368)" fill="none" stroke="#fff" stroke-linecap="round" stroke-linejoin="round" stroke-width="2"/>
    <path id="Path_3748" data-name="Path 3748" d="M238.109,1617.853v-10.159h5.332v10.159" transform="translate(10.237 13.184)" fill="none" stroke="#fff" stroke-linecap="round" stroke-linejoin="round" stroke-width="2"/>
    <line id="Line_172" data-name="Line 172" x2="4.024" transform="translate(225.819 1607.471)" fill="none" stroke="#fff" stroke-linecap="round" stroke-linejoin="round" stroke-width="2"/>
  </g>
</svg>
