<?xml version="1.0" encoding="UTF-8"?>
<svg width="111px" height="129px" viewBox="0 0 111 129" version="1.1" xmlns="http://www.w3.org/2000/svg" xmlns:xlink="http://www.w3.org/1999/xlink">
    <!-- Generator: Sketch 50.2 (55047) - http://www.bohemiancoding.com/sketch -->
    <title>Fill 1</title>
    <desc>Created with Sketch.</desc>
    <defs></defs>
    <g id="New" stroke="none" stroke-width="1" fill="none" fill-rule="evenodd">
        <g id="Desktop" transform="translate(-467.000000, -1996.000000)" fill="#231F20">
            <path d="M539.518155,2121.38525 L555.027449,2121.38525 L555.027449,2088.18968 L539.518155,2088.18968 L539.518155,2121.38525 Z M573.248503,2060.32063 L566.145843,2046.35696 C565.395511,2044.88193 564.319185,2043.71465 563.0316,2042.9225 C561.738552,2042.13217 560.210569,2041.70241 558.551461,2041.70241 L522.499089,2041.70241 L486.448539,2041.70241 C484.787609,2041.70241 483.261448,2042.13217 481.9684,2042.92432 C480.678994,2043.71465 479.604489,2044.88193 478.854157,2046.35879 L471.751497,2060.32063 L495.652857,2060.32063 L522.499089,2060.32063 L549.347143,2060.32063 L573.248503,2060.32063 Z M551.292179,2063.93537 C551.681914,2066.41926 552.856585,2068.64274 554.55576,2070.34176 C556.657418,2072.44141 559.562224,2073.74345 562.769348,2073.74345 C565.976472,2073.74345 568.881278,2072.44141 570.982937,2070.34176 C572.682111,2068.64274 573.858603,2066.41926 574.246518,2063.93537 L551.292179,2063.93537 Z M493.706,2063.93537 L470.753482,2063.93537 C471.141397,2066.41926 472.317889,2068.64274 474.015242,2070.34176 C476.118722,2072.44141 479.021707,2073.74345 482.230652,2073.74345 C485.437776,2073.74345 488.342582,2072.44141 490.44424,2070.34176 C492.141594,2068.64274 493.318086,2066.41926 493.706,2063.93537 Z M520.552232,2063.93537 L497.601536,2063.93537 C497.987629,2066.41926 499.164121,2068.64274 500.863296,2070.34176 C502.964954,2072.44323 505.86976,2073.74345 509.075063,2073.74345 C512.284008,2073.74345 515.188814,2072.44141 517.290472,2070.34176 C518.989647,2068.64274 520.164318,2066.41926 520.552232,2063.93537 Z M547.398464,2063.93537 L524.445947,2063.93537 C524.835682,2066.41926 526.010353,2068.64274 527.709528,2070.34176 C529.811186,2072.44323 532.715992,2073.74345 535.923116,2073.74345 C539.13024,2073.74345 542.035046,2072.44141 544.136704,2070.34176 C545.835879,2068.64274 547.01055,2066.41926 547.398464,2063.93537 Z M505.150388,2108.72727 L489.97073,2108.72727 L489.97073,2088.18968 L515.633185,2088.18968 L501.562634,2102.25715 C500.857832,2102.96189 500.857832,2104.10731 501.562634,2104.81205 C502.267437,2105.51861 503.412968,2105.51861 504.117771,2104.81205 L521.273425,2087.65976 L521.302564,2087.62881 L521.304386,2087.62516 L521.331704,2087.59785 L521.337167,2087.59239 L521.359021,2087.56507 L521.366306,2087.55779 L521.388161,2087.53229 C521.4173,2087.49769 521.442796,2087.46309 521.468293,2087.42849 L521.47922,2087.41392 L521.49379,2087.39207 C521.533856,2087.33198 521.572101,2087.27006 521.603062,2087.20451 L521.613989,2087.18265 L521.623095,2087.16444 L521.634022,2087.14441 L521.643128,2087.1262 L521.652234,2087.10253 L521.659519,2087.08432 L521.668625,2087.06247 L521.675909,2087.04608 L521.685015,2087.02058 L521.6923,2087.00419 L521.699585,2086.98052 L521.70687,2086.96231 L521.714154,2086.93864 L521.721439,2086.92043 L521.726903,2086.89675 L521.734188,2086.87672 L521.73783,2086.85487 L521.743294,2086.83484 L521.748757,2086.81298 L521.754221,2086.78931 L521.759684,2086.7711 L521.765148,2086.74743 L521.76879,2086.7274 L521.772433,2086.7019 L521.776075,2086.68551 L521.781539,2086.6582 L521.78336,2086.64181 L521.787002,2086.61449 L521.788823,2086.5981 L521.792466,2086.56715 L521.794287,2086.5544 L521.796108,2086.52162 L521.797929,2086.51251 L521.799751,2086.47427 L521.799751,2086.47063 L521.801572,2086.42875 L521.801572,2086.4251 L521.801572,2086.38322 L521.801572,2086.3377 L521.801572,2086.33587 L521.799751,2086.29581 L521.799751,2086.29035 L521.797929,2086.25211 L521.796108,2086.24482 L521.794287,2086.2084 L521.792466,2086.19748 L521.788823,2086.16652 L521.787002,2086.15377 L521.78336,2086.12281 L521.781539,2086.10642 L521.776075,2086.08093 L521.772433,2086.06272 L521.76879,2086.03723 L521.765148,2086.01901 L521.759684,2085.99534 L521.754221,2085.97531 L521.748757,2085.95164 L521.743294,2085.93161 L521.73783,2085.90975 L521.734188,2085.8879 L521.726903,2085.86787 L521.721439,2085.84602 L521.714154,2085.82599 L521.70687,2085.80231 L521.699585,2085.78592 L521.6923,2085.76225 L521.685015,2085.74222 L521.675909,2085.72037 C521.586671,2085.49456 521.453724,2085.28514 521.273425,2085.10486 C521.091306,2084.92275 520.880047,2084.78982 520.657861,2084.70241 L520.634186,2084.69148 L520.615974,2084.68602 L520.59412,2084.67692 L520.574087,2084.67145 L520.552232,2084.66235 L520.530378,2084.65688 L520.510345,2084.65142 L520.48849,2084.64596 L520.466636,2084.63867 L520.446603,2084.63321 L520.424749,2084.62775 L520.402894,2084.62228 L520.382861,2084.61864 L520.359186,2084.61318 L520.340974,2084.60954 L520.313656,2084.60407 L520.297265,2084.60043 L520.269947,2084.59679 L520.255377,2084.59497 L520.224417,2084.58951 L520.211669,2084.58768 L520.178887,2084.58404 L520.16796,2084.58404 L520.133357,2084.5804 L520.126073,2084.5804 L520.087828,2084.57858 L520.080543,2084.57858 L520.040476,2084.57676 L520.038655,2084.57676 L519.994947,2084.57676 L519.993125,2084.57676 L488.165926,2084.57676 C487.167911,2084.57676 486.3593,2085.3853 486.3593,2086.38322 L486.3593,2110.53373 C486.3593,2111.53166 487.167911,2112.34201 488.165926,2112.34201 L526.411016,2112.34201 C527.409031,2112.34201 528.217641,2111.53166 528.217641,2110.53373 L528.217641,2086.38322 C528.217641,2085.3853 527.409031,2084.57676 526.411016,2084.57676 C525.413001,2084.57676 524.604391,2085.3853 524.604391,2086.38322 L524.604391,2108.72727 L510.262482,2108.72727 L517.443453,2101.54877 C518.148255,2100.84221 518.148255,2099.69678 517.443453,2098.99386 C516.736829,2098.2873 515.593119,2098.2873 514.888316,2098.99386 L505.150388,2108.72727 Z M548.94648,2105.76627 L548.94648,2106.79151 C548.94648,2107.78944 549.75509,2108.59798 550.753105,2108.59798 C551.75112,2108.59798 552.55973,2107.78944 552.55973,2106.79151 L552.55973,2105.76627 C552.55973,2104.76835 551.75112,2103.95981 550.753105,2103.95981 C549.75509,2103.95981 548.94648,2104.76835 548.94648,2105.76627 Z M520.024086,2009.30445 L521.226074,2010.82683 C521.841638,2011.60441 522.974421,2011.73735 523.753893,2011.12184 C524.533364,2010.50633 524.666311,2009.37547 524.050747,2008.59607 L522.846938,2007.07369 C522.231374,2006.29429 521.098591,2006.16135 520.319119,2006.77686 C519.539648,2007.39237 519.408522,2008.52505 520.024086,2009.30445 Z M514.717124,2018.62084 L516.368948,2019.63698 C517.219446,2020.15962 518.332196,2019.89374 518.853057,2019.04514 C519.377562,2018.19472 519.109846,2017.08389 518.261169,2016.56126 L516.607524,2015.5433 C515.758848,2015.02249 514.646098,2015.28836 514.123415,2016.13696 C513.602553,2016.98556 513.866626,2018.10003 514.717124,2018.62084 Z M528.957046,2020.38178 L530.108041,2018.81569 C530.696287,2018.01444 530.523274,2016.8854 529.720127,2016.29721 C528.91698,2015.70902 527.78966,2015.88384 527.201414,2016.68509 L526.050419,2018.24935 C525.462173,2019.05243 525.635187,2020.17965 526.438334,2020.76784 C527.241481,2021.35603 528.3688,2021.18303 528.957046,2020.38178 Z M522.227731,2029.51243 C522.31697,2029.49786 522.40803,2029.4924 522.499089,2029.4924 C522.590149,2029.4924 522.679388,2029.49786 522.768626,2029.51061 C526.791645,2029.44141 530.428571,2027.78245 533.072946,2025.13831 C535.571625,2022.63986 537.188846,2019.25456 537.423781,2015.49049 C535.950434,2014.74387 534.684704,2013.64579 533.735861,2012.31279 C532.563012,2010.66112 531.872779,2008.64342 531.872779,2006.47457 C531.872779,2005.71702 531.963839,2004.96311 532.13321,2004.2256 C532.202415,2003.9142 532.288011,2003.60827 532.388177,2003.30962 C531.184367,2002.24614 529.807544,2001.37386 528.30688,2000.74014 C526.529393,1999.9917 524.566145,1999.5765 522.500911,1999.5765 C518.36862,1999.5765 514.629707,2001.25003 511.927054,2003.95244 C509.220758,2006.65667 507.54708,2010.40253 507.54708,2014.54538 C507.54708,2018.68822 509.220758,2022.43408 511.927054,2025.13831 C514.569607,2027.78245 518.204712,2029.44141 522.227731,2029.51243 Z M570.748002,2075.10194 L570.748002,2123.19354 C570.748002,2124.18964 569.937571,2125 568.939556,2125 L556.834074,2125 L537.711529,2125 C536.713515,2125 535.904904,2124.18964 535.904904,2123.19354 L535.904904,2086.38322 C535.904904,2085.3853 536.713515,2084.57676 537.711529,2084.57676 L556.834074,2084.57676 C557.832089,2084.57676 558.6407,2085.3853 558.6407,2086.38322 L558.6407,2121.38525 L567.132931,2121.38525 L567.132931,2076.72265 C565.750644,2077.13603 564.286403,2077.35819 562.769348,2077.35819 C558.564209,2077.35819 554.756091,2075.65189 552.000623,2072.89667 C550.951615,2071.84775 550.053766,2070.64587 549.347143,2069.32745 C548.636877,2070.64587 547.740849,2071.84775 546.693662,2072.89667 C543.936373,2075.65189 540.128255,2077.35819 535.923116,2077.35819 C531.717977,2077.35819 527.908038,2075.65189 525.15257,2072.89667 C524.103562,2071.84775 523.207534,2070.64587 522.499089,2069.32745 C521.792466,2070.64587 520.894617,2071.84775 519.843787,2072.89667 C517.090141,2075.65189 513.282023,2077.35819 509.075063,2077.35819 C504.871745,2077.35819 501.063627,2075.65189 498.306338,2072.89667 C497.25733,2071.84775 496.361302,2070.64587 495.652857,2069.32745 C494.946234,2070.64587 494.048385,2071.84775 492.999377,2072.89667 C490.243909,2075.65189 486.435791,2077.35819 482.230652,2077.35819 C480.713597,2077.35819 479.247535,2077.13603 477.867069,2076.72265 L477.867069,2121.38525 L528.166648,2121.38525 C529.162841,2121.38525 529.973273,2122.19743 529.973273,2123.19354 C529.973273,2124.18964 529.162841,2125 528.166648,2125 L476.058623,2125 C475.062429,2125 474.251998,2124.18964 474.251998,2123.19354 L474.251998,2075.10194 C473.237592,2074.47732 472.299677,2073.73434 471.460106,2072.89667 C468.704638,2070.14145 467,2066.33367 467,2062.12709 C467,2061.81023 467.083775,2061.50976 467.229471,2061.24753 L475.634284,2044.72168 C476.688756,2042.64752 478.227666,2040.99039 480.088927,2039.8486 C481.950188,2038.70681 484.121052,2038.08948 486.448539,2038.08948 L520.692464,2038.08948 L520.692464,2033.00517 C516.286994,2032.57905 512.331359,2030.61415 509.371918,2027.65316 C506.011813,2024.29336 503.93383,2019.65883 503.93383,2014.54538 C503.93383,2009.43374 506.011813,2004.7974 509.371918,2001.4376 C512.732022,1998.07962 517.374247,1996 522.499089,1996 C525.052404,1996 527.492805,1996.51899 529.718305,1997.45865 C532.020296,1998.42926 534.087352,1999.8533 535.804738,2001.61788 C536.363845,2002.1915 536.456726,2003.04193 536.088845,2003.7066 C535.901262,2004.11451 535.750103,2004.54974 535.646294,2005.00682 C535.542486,2005.46208 535.486029,2005.95375 535.486029,2006.47457 C535.486029,2007.88951 535.930401,2009.19519 536.686197,2010.25867 C537.463847,2011.35493 538.571133,2012.19807 539.860539,2012.64786 C540.62362,2012.91555 541.089846,2013.6385 541.062528,2014.3997 L541.067991,2014.54538 C541.067991,2018.57896 539.773122,2022.31754 537.57494,2025.36594 C536.824607,2026.40939 535.965004,2027.36908 535.017982,2028.23589 C534.808545,2028.4271 534.591823,2028.61102 534.376922,2028.79494 C531.592315,2031.11494 528.115654,2032.6355 524.307536,2033.00335 L524.307536,2038.08948 L558.551461,2038.08948 C560.877127,2038.08948 563.047991,2038.70681 564.909252,2039.84678 C566.772334,2040.99039 568.309423,2042.64752 569.363894,2044.72168 L577.770529,2061.24753 C577.916225,2061.50976 578,2061.81023 578,2062.12709 C578,2066.33367 576.295362,2070.14145 573.538073,2072.89667 C572.700323,2073.73434 571.762408,2074.47732 570.748002,2075.10194 Z" id="Fill-1"></path>
        </g>
    </g>
</svg>