<svg xmlns="http://www.w3.org/2000/svg" xmlns:xlink="http://www.w3.org/1999/xlink" width="54.639" height="46.041" viewBox="0 0 54.639 46.041">
  <defs>
    <clipPath id="clip-path">
      <rect id="Rectangle_4457" data-name="Rectangle 4457" width="54.639" height="46.041" fill="#fff"/>
    </clipPath>
  </defs>
  <g id="subscriptions_icon" data-name="subscriptions icon" transform="translate(0 0)">
    <g id="Group_5663" data-name="Group 5663" transform="translate(0 0)" clip-path="url(#clip-path)">
      <path id="Path_3815" data-name="Path 3815" d="M24.187.6A21.679,21.679,0,1,0,45.867,22.275,21.68,21.68,0,0,0,24.187.6m8.477,26.053a9.4,9.4,0,0,1-2.977,3.141,8.842,8.842,0,0,1-3.017,1.351c-4.25,1.019-9.239-.922-11.058-5.054a9.483,9.483,0,0,1,.184-8.029,8.869,8.869,0,0,1,6.927-4.922,7.757,7.757,0,0,1,5.47,1.345,2.97,2.97,0,0,1,2.163,1.288,2.247,2.247,0,0,1,.153,2.156c.191.528.364,1.066.555,1.6a11.309,11.309,0,0,1,1.974,2.172,2.506,2.506,0,0,1,.04,2.422,4.367,4.367,0,0,1-.416,2.534" transform="translate(3.131 0.745)" fill="none"/>
      <path id="Path_3816" data-name="Path 3816" d="M51.13,20.15a1.035,1.035,0,0,0-1.437,0l-2.509,2.507L47.02,20.87A23.188,23.188,0,0,0,24.108,0,22.885,22.885,0,0,0,2.64,14.694a1.017,1.017,0,1,0,1.9.735A20.978,20.978,0,0,1,44.911,20.4l.306,2.442L42.53,20.15a1.016,1.016,0,1,0-1.437,1.437l4.3,4.3a1.03,1.03,0,0,0,1.437,0l4.3-4.3a1.016,1.016,0,0,0,0-1.437" transform="translate(3.21 0.001)" fill="#fff"/>
      <path id="Path_3817" data-name="Path 3817" d="M1.734,14.859l2.509-2.5L4.4,14.142A23.192,23.192,0,0,0,27.318,35.014,22.935,22.935,0,0,0,48.64,20.678a.985.985,0,0,0,0-.778,1.018,1.018,0,0,0-.553-.549h0a1,1,0,0,0-.771,0,1.008,1.008,0,0,0-.553.555,20.976,20.976,0,0,1-40.242-5.3l-.308-2.44L8.9,14.859a1.028,1.028,0,0,0,1.434,0,1.015,1.015,0,0,0,0-1.439l-4.3-4.3a1.035,1.035,0,0,0-1.437,0l-4.3,4.3a1.018,1.018,0,0,0,0,1.437,1.01,1.01,0,0,0,1.437,0" transform="translate(0 11.028)" fill="#fff"/>
      <path id="Path_3818" data-name="Path 3818" d="M27.99,15.021a3.682,3.682,0,0,1-2.467-3.485,3.529,3.529,0,0,1,.092-.83,3.494,3.494,0,0,1,.247-.731,1.056,1.056,0,0,0-.173-1.248A10.641,10.641,0,1,0,24.3,24.766l.634-.495a11.1,11.1,0,0,0,1.774-1.916,10.546,10.546,0,0,0,2-6.219v-.047a1.065,1.065,0,0,0-.717-1.068M24.447,14.9a5.825,5.825,0,0,0,2.1,1.814,8.5,8.5,0,0,1-14.491,5.452v0A8.505,8.505,0,0,1,23.658,9.742c-.052.162-.1.331-.137.5a6.062,6.062,0,0,0-.148,1.3A5.763,5.763,0,0,0,24.447,14.9" transform="translate(9.257 6.875)" fill="#fff"/>
      <path id="Path_3819" data-name="Path 3819" d="M13.315,8.555a1.071,1.071,0,0,0-1.682,1.327l.688.868a1.073,1.073,0,0,0,.841.409,1.051,1.051,0,0,0,.663-.232A1.073,1.073,0,0,0,14,9.423Z" transform="translate(14.237 10.171)" fill="#fff"/>
      <path id="Path_3820" data-name="Path 3820" d="M12.517,11.146l-.947-.582a1.074,1.074,0,0,0-1.124,1.83l.947.582a1.074,1.074,0,0,0,1.475-.355,1.072,1.072,0,0,0-.351-1.475" transform="translate(12.404 12.992)" fill="#fff"/>
      <path id="Path_3821" data-name="Path 3821" d="M14.509,10.591a1.069,1.069,0,0,0-.7.425l-.659.893a1.072,1.072,0,0,0,.866,1.707,1.025,1.025,0,0,0,.164-.011,1.061,1.061,0,0,0,.7-.425l.657-.893a1.079,1.079,0,0,0-.229-1.5,1.025,1.025,0,0,0-.8-.193" transform="translate(16.16 13.203)" fill="#fff"/>
    </g>
  </g>
</svg>
