<svg xmlns="http://www.w3.org/2000/svg" width="29.187" height="23.72" viewBox="0 0 29.187 23.72">
  <path id="Path_996" data-name="Path 996" d="M84.179,122.131c11.014,0,17.038-9.125,17.038-17.038,0-.259-.005-.517-.017-.774a12.184,12.184,0,0,0,2.987-3.1,11.953,11.953,0,0,1-3.439.943,6.008,6.008,0,0,0,2.633-3.312,12,12,0,0,1-3.8,1.453,5.994,5.994,0,0,0-10.2,5.461,17,17,0,0,1-12.343-6.256,5.993,5.993,0,0,0,1.854,7.994,5.944,5.944,0,0,1-2.712-.749c0,.025,0,.05,0,.076a5.991,5.991,0,0,0,4.8,5.871,5.979,5.979,0,0,1-2.7.1,6,6,0,0,0,5.594,4.159,12.016,12.016,0,0,1-7.437,2.563A12.178,12.178,0,0,1,75,119.442a16.953,16.953,0,0,0,9.179,2.69" transform="translate(-75 -98.411)" fill="#fff"/>
</svg>
