<svg xmlns="http://www.w3.org/2000/svg" width="41.161" height="29" viewBox="0 0 41.161 29"><defs><style>.a{fill:#fff;}</style></defs><path class="a" d="M2705.627,1508.833a5.171,5.171,0,0,0-3.639-3.663c-3.209-.866-16.081-.866-16.081-.866s-12.872,0-16.082.866a5.171,5.171,0,0,0-3.639,3.663c-.86,3.231-.86,9.971-.86,9.971s0,6.741.86,9.972a5.173,5.173,0,0,0,3.639,3.663c3.21.865,16.082.865,16.082.865s12.872,0,16.081-.865a5.172,5.172,0,0,0,3.639-3.663c.86-3.231.86-9.972.86-9.972S2706.487,1512.063,2705.627,1508.833Zm-23.93,16.091v-12.24l10.758,6.12Z" transform="translate(-2665.326 -1504.304)"/></svg>